<?xml version="1.0" encoding="utf-8"?>
<!-- Generator: Adobe Illustrator 23.0.0, SVG Export Plug-In . SVG Version: 6.00 Build 0)  -->
<svg version="1.1" id="Layer_1" xmlns="http://www.w3.org/2000/svg" xmlns:xlink="http://www.w3.org/1999/xlink" x="0px" y="0px"
	 viewBox="0 0 500 500" style="enable-background:new 0 0 500 500;" xml:space="preserve">
<style type="text/css">
	.st0{stroke:#000000;stroke-width:10.9749;stroke-linejoin:round;stroke-miterlimit:10;}
	.st1{fill:#F7D200;}
</style>
<g>
	<g>
		<path class="st0" d="M176.5,334l1.4-10.7c0.2-1.7,1-3.6,2.6-5.5c1.6-1.9,3.4-3.8,5.5-5.8c2.1-1.9,4.4-3.8,6.9-5.7
			c2.5-1.8,4.7-3.6,6.8-5.3c2.1-1.7,3.8-3.3,5.2-4.7c1.4-1.4,2.1-2.7,2.1-3.8c0-1.7-0.3-3-1-3.9c-0.6-0.9-1.5-1.4-2.4-1.4
			c-1,0-1.8,0.2-2.5,0.6c-0.7,0.4-1.2,1-1.6,1.7c-0.4,0.7-0.6,1.4-0.8,2.2c-0.2,0.8-0.3,1.6-0.3,2.4v0.8c0,0.2,0,0.3,0.1,0.3
			c-1.5,0.1-3.1,0.3-4.7,0.4c-1.4,0.1-3,0.3-4.7,0.5c-1.7,0.2-3.4,0.4-5.1,0.6c-0.1-0.5-0.1-0.9-0.1-1.4c0-0.5,0-0.9,0-1.3
			c0-3.3,0.6-6.3,1.9-8.9c1.3-2.6,3-4.8,5-6.6c2.1-1.8,4.4-3.1,7-4.1c2.6-1,5.2-1.4,7.8-1.4c2.1,0,4.2,0.3,6.1,1
			c1.9,0.7,3.7,1.7,5.2,3.1c1.5,1.4,2.7,3.1,3.6,5.3c0.9,2.1,1.4,4.6,1.4,7.6c0,2.8-0.7,5.6-2.2,8.3c-1.5,2.7-3.5,5.3-6.1,7.9
			c-2.6,2.6-5.7,5.1-9.2,7.5c-3.6,2.4-7.4,4.7-11.6,6.9c1.5,0,3.5-0.1,5.9-0.2c2.4-0.1,4.9-0.3,7.4-0.5c2.5-0.2,5.2-0.4,8.2-0.6
			l-1.4,12.3c-1.4,0.1-2.9,0.2-4.6,0.3c-1.7,0.1-3.6,0.2-5.5,0.3c-1.9,0.1-4,0.2-6,0.4c-2.1,0.1-4.1,0.3-6,0.4
			C186.2,333.3,181.5,333.6,176.5,334z"/>
		<path class="st0" d="M257.8,313.1c-0.5,3.2-1.3,6.4-2.3,9.4c-1,3.1-2.3,6-3.8,8.8c-1.5,2.8-3.2,5.2-5.2,7.2
			c-2,2.1-4.2,3.7-6.6,4.9c-2.4,1.2-5,1.8-7.8,1.8c-2.6,0-4.8-0.5-6.7-1.4c-1.8-1-3.3-2.3-4.5-3.9c-1.2-1.7-2-3.6-2.6-5.8
			c-0.6-2.2-0.8-4.6-0.8-7.2c0-3,0.3-6.2,1-9.6s1.7-6.7,2.9-9.9c1.3-3.2,2.8-6.3,4.6-9.2c1.8-2.9,3.8-5.5,5.9-7.7
			c2.1-2.2,4.4-4,6.8-5.3c2.4-1.3,4.9-2,7.5-2c2.1,0,3.9,0.5,5.5,1.6c1.6,1.1,2.8,2.5,3.9,4.4c1,1.9,1.8,4.1,2.2,6.6
			c0.5,2.5,0.7,5.2,0.7,8C258.5,306.7,258.3,309.8,257.8,313.1z M231.2,329.1c0.7,1.3,1.8,1.9,3.4,1.9c2.1,0,4-0.7,5.8-2.1
			c1.7-1.4,3.2-3.2,4.5-5.3c1.2-2.1,2.2-4.4,2.9-6.9c0.7-2.5,1-4.9,1-7.2c0-2.4-0.5-4.5-1.4-6.2c-0.9-1.7-2.4-2.5-4.4-2.5
			c-1.6,0-3.2,0.8-4.7,2.3c-1.5,1.6-2.9,3.5-4,5.8c-1.2,2.3-2.1,4.9-2.8,7.6c-0.7,2.7-1.1,5.2-1.1,7.5
			C230.2,326.1,230.5,327.8,231.2,329.1z"/>
		<path class="st0" d="M261.9,326.2c1.1-5.1,2.2-10.2,3.3-15.2c0.5-2.1,0.9-4.4,1.4-6.8c0.5-2.4,1-4.8,1.4-7.2
			c0.5-2.4,0.9-4.8,1.4-7.2c0.5-2.4,0.8-4.6,1.2-6.7c-1.4,0.1-2.7,0.3-4,0.5c-1.1,0.2-2.2,0.4-3.3,0.6c-1.2,0.2-2.1,0.4-2.9,0.5
			c0.1-0.8,0.3-2,0.5-3.6c0.2-1.6,0.5-3.3,0.8-5c0.2-1.9,0.5-4,0.8-6.3c1.3-0.3,3.1-0.6,5.4-1.1c2-0.3,4.6-0.8,7.9-1.3
			c3.3-0.5,7.3-1.2,12.2-1.9c-1.2,5-2.3,9.8-3.3,14.5c-1,4.7-1.9,9.4-2.8,14.1c-0.9,4.7-1.7,9.4-2.5,14.2c-0.8,4.8-1.6,9.7-2.4,14.7
			c-1.3,0.4-2.8,0.8-4.5,1.2c-1.7,0.4-3.4,0.7-5,1C265.7,325.5,263.8,325.8,261.9,326.2z"/>
		<path class="st0" d="M320.2,322.3c-2.9,4.3-6.2,7.9-10,10.6c-3.8,2.8-7.9,4.7-12.2,5.7c-4.3,1.1-8.6,1.2-12.8,0.3l2.7-14.8
			c1.8,0.4,5.1,1.7,6.9,1.4c1.8-0.3,3.5-0.9,5.1-1.8c1.6-0.9,3.1-2.2,4.4-3.7c1.3-1.5,2.5-3.3,3.4-5.3c-1.4,0.5-2.9,0.8-4.4,0.9
			c-1.5,0.1-2.9,0-4.3-0.3c-1.9-0.4-3.6-1.2-5.3-2.3c-1.6-1.1-3-2.6-4-4.3c-1.1-1.7-1.8-3.6-2.3-5.8c-0.4-2.2-0.4-4.5,0.1-7.1
			c0.6-3,1.8-5.6,3.4-7.8c1.6-2.2,3.5-3.9,5.7-5.2c2.2-1.3,4.6-2.1,7.1-2.5c2.5-0.4,5-0.3,7.4,0.2c2.4,0.5,4.7,1.4,6.9,2.8
			c2.2,1.4,4,3.2,5.5,5.4c1.4,2.2,2.4,4.9,3,8c0.5,3.1,0.4,6.6-0.4,10.4C325.1,313,323.1,318,320.2,322.3z M302.5,301.5
			c1,1.1,2.3,1.8,3.7,2.1c1.4,0.3,2.7,0.2,4.1-0.4c1.3-0.5,2.1-1.5,2.4-3c0.5-2.5,0.4-4.3-0.3-5.4c-0.7-1-1.7-1.7-3-2
			c-0.7-0.1-1.5-0.2-2.4-0.1c-0.9,0.1-1.7,0.3-2.4,0.7c-0.7,0.4-1.4,0.9-1.9,1.5c-0.6,0.6-0.9,1.4-1.1,2.2
			C301.1,299,301.4,300.4,302.5,301.5z"/>
	</g>
	<g>
		<path class="st1" d="M173.7,330.9l1.4-10.7c0.2-1.7,1-3.6,2.6-5.5c1.6-1.9,3.4-3.8,5.5-5.8c2.1-1.9,4.4-3.8,6.9-5.7
			c2.5-1.8,4.7-3.6,6.8-5.3c2.1-1.7,3.8-3.3,5.2-4.7s2.1-2.7,2.1-3.8c0-1.7-0.3-3-1-3.9c-0.6-0.9-1.5-1.4-2.4-1.4
			c-1,0-1.8,0.2-2.5,0.6c-0.7,0.4-1.2,1-1.6,1.7c-0.4,0.7-0.6,1.4-0.8,2.2c-0.2,0.8-0.3,1.6-0.3,2.4v0.8c0,0.2,0,0.3,0.1,0.3
			c-1.5,0.1-3.1,0.3-4.7,0.4c-1.4,0.1-3,0.3-4.7,0.5c-1.7,0.2-3.4,0.4-5.1,0.6c-0.1-0.5-0.1-0.9-0.1-1.4c0-0.5,0-0.9,0-1.3
			c0-3.3,0.6-6.3,1.9-8.9c1.3-2.6,3-4.8,5-6.6c2.1-1.8,4.4-3.1,7-4.1c2.6-1,5.2-1.4,7.8-1.4c2.1,0,4.2,0.3,6.1,1
			c1.9,0.7,3.7,1.7,5.2,3.1c1.5,1.4,2.7,3.1,3.6,5.3c0.9,2.1,1.4,4.6,1.4,7.6c0,2.8-0.7,5.6-2.2,8.3c-1.5,2.7-3.5,5.3-6.1,7.9
			c-2.6,2.6-5.7,5.1-9.2,7.5c-3.6,2.4-7.4,4.7-11.6,6.9c1.5,0,3.5-0.1,5.9-0.2c2.4-0.1,4.9-0.3,7.4-0.5c2.5-0.2,5.2-0.4,8.2-0.6
			l-1.4,12.3c-1.4,0.1-2.9,0.2-4.6,0.3c-1.7,0.1-3.6,0.2-5.5,0.3c-1.9,0.1-4,0.2-6,0.4c-2.1,0.1-4.1,0.3-6,0.4
			C183.4,330.3,178.7,330.6,173.7,330.9z"/>
		<path class="st1" d="M255,310c-0.5,3.2-1.3,6.4-2.3,9.4c-1,3.1-2.3,6-3.8,8.8c-1.5,2.8-3.2,5.2-5.2,7.2c-2,2.1-4.2,3.7-6.6,4.9
			c-2.4,1.2-5,1.8-7.8,1.8c-2.6,0-4.8-0.5-6.7-1.4c-1.8-1-3.3-2.3-4.5-3.9c-1.2-1.7-2-3.6-2.6-5.8c-0.6-2.2-0.8-4.6-0.8-7.2
			c0-3,0.3-6.2,1-9.6s1.7-6.7,2.9-9.9c1.3-3.2,2.8-6.3,4.6-9.2c1.8-2.9,3.8-5.5,5.9-7.7c2.1-2.2,4.4-4,6.8-5.3c2.4-1.3,4.9-2,7.5-2
			c2.1,0,3.9,0.5,5.5,1.6c1.6,1.1,2.8,2.5,3.9,4.4c1,1.9,1.8,4.1,2.2,6.6c0.5,2.5,0.7,5.2,0.7,8C255.7,303.7,255.5,306.8,255,310z
			 M228.4,326c0.7,1.3,1.8,1.9,3.4,1.9c2.1,0,4-0.7,5.8-2.1c1.7-1.4,3.2-3.2,4.5-5.3c1.2-2.1,2.2-4.4,2.9-6.9c0.7-2.5,1-4.9,1-7.2
			c0-2.4-0.5-4.5-1.4-6.2c-0.9-1.7-2.4-2.5-4.4-2.5c-1.6,0-3.2,0.8-4.7,2.3c-1.5,1.6-2.9,3.5-4,5.8c-1.2,2.3-2.1,4.9-2.8,7.6
			c-0.7,2.7-1.1,5.2-1.1,7.5C227.3,323,227.7,324.7,228.4,326z"/>
		<path class="st1" d="M259.1,323.1c1.1-5.1,2.2-10.2,3.3-15.2c0.5-2.1,0.9-4.4,1.4-6.8c0.5-2.4,1-4.8,1.4-7.2
			c0.5-2.4,0.9-4.8,1.4-7.2c0.5-2.4,0.8-4.6,1.2-6.7c-1.4,0.1-2.7,0.3-4,0.5c-1.1,0.2-2.2,0.4-3.3,0.6c-1.2,0.2-2.1,0.4-2.9,0.5
			c0.1-0.8,0.3-2,0.5-3.6c0.2-1.6,0.5-3.3,0.8-5c0.2-1.9,0.5-4,0.8-6.3c1.3-0.3,3.1-0.6,5.4-1.1c2-0.3,4.6-0.8,7.9-1.3
			c3.3-0.5,7.3-1.2,12.2-1.9c-1.2,5-2.3,9.8-3.3,14.5s-1.9,9.4-2.8,14.1c-0.9,4.7-1.7,9.4-2.5,14.2c-0.8,4.8-1.6,9.7-2.4,14.7
			c-1.3,0.4-2.8,0.8-4.5,1.2c-1.7,0.4-3.4,0.7-5,1C262.9,322.4,261,322.8,259.1,323.1z"/>
		<path class="st1" d="M317.4,319.2c-2.9,4.3-6.2,7.9-10,10.6c-3.8,2.8-7.9,4.7-12.2,5.7c-4.3,1.1-8.6,1.2-12.8,0.3l2.7-14.8
			c1.8,0.4,5.1,1.7,6.9,1.4c1.8-0.3,3.5-0.9,5.1-1.8c1.6-0.9,3.1-2.2,4.4-3.7c1.3-1.5,2.5-3.3,3.4-5.3c-1.4,0.5-2.9,0.8-4.4,0.9
			c-1.5,0.1-2.9,0-4.3-0.3c-1.9-0.4-3.6-1.2-5.3-2.3c-1.6-1.1-3-2.6-4-4.3c-1.1-1.7-1.8-3.6-2.3-5.8c-0.4-2.2-0.4-4.5,0.1-7.1
			c0.6-3,1.8-5.6,3.4-7.8c1.6-2.2,3.5-3.9,5.7-5.2c2.2-1.3,4.6-2.1,7.1-2.5c2.5-0.4,5-0.3,7.4,0.2c2.4,0.5,4.7,1.4,6.9,2.8
			c2.2,1.4,4,3.2,5.5,5.4c1.4,2.2,2.4,4.9,3,8c0.5,3.1,0.4,6.6-0.4,10.4C322.3,309.9,320.3,314.9,317.4,319.2z M299.7,298.5
			c1,1.1,2.3,1.8,3.7,2.1c1.4,0.3,2.7,0.2,4.1-0.4c1.3-0.5,2.1-1.5,2.4-3c0.5-2.5,0.4-4.3-0.3-5.4c-0.7-1-1.7-1.7-3-2
			c-0.7-0.1-1.5-0.2-2.4-0.1c-0.9,0.1-1.7,0.3-2.4,0.7c-0.7,0.4-1.4,0.9-1.9,1.5c-0.6,0.6-0.9,1.4-1.1,2.2
			C298.3,295.9,298.6,297.4,299.7,298.5z"/>
	</g>
</g>
</svg>
