<svg xmlns="http://www.w3.org/2000/svg" viewBox="0 0 449.54 233.37"><defs><style>.cls-1,.cls-2{fill:#fff;}.cls-2{font-size:13.17px;font-family:KronaOne-Regular, Krona One;}</style></defs><title>Asset 4</title><g id="Layer_2" data-name="Layer 2"><g id="Layer_1-2" data-name="Layer 1"><path class="cls-1" d="M0,130.63l3-22.48q.54-5.54,5.45-11.51A114.79,114.79,0,0,1,20.17,84.5q6.78-6.15,14.54-12T49.08,61.39a122.66,122.66,0,0,0,11-9.9c2.92-3,4.37-5.68,4.37-8,0-3.56-.68-6.33-2.05-8.29a6,6,0,0,0-5.08-3A10.07,10.07,0,0,0,52,33.64a9,9,0,0,0-3.39,3.48,17.62,17.62,0,0,0-1.7,4.64,24.28,24.28,0,0,0-.53,5v1.78a1,1,0,0,0,.18.72c-3.21.23-6.55.53-10,.89-3,.24-6.27.56-9.9,1s-7.23.8-10.8,1.16c-.12-.95-.21-1.93-.26-2.95s-.09-1.93-.09-2.76a41.86,41.86,0,0,1,4.1-18.83A43.88,43.88,0,0,1,30.25,13.83,47.22,47.22,0,0,1,45.06,5.18a47.9,47.9,0,0,1,16.51-3A39.34,39.34,0,0,1,74.51,4.28,30.84,30.84,0,0,1,85.39,10.8,31.9,31.9,0,0,1,93,21.86a40.66,40.66,0,0,1,2.85,16,35.75,35.75,0,0,1-4.64,17.41A72.31,72.31,0,0,1,78.34,71.83,137.68,137.68,0,0,1,58.89,87.62a248.44,248.44,0,0,1-24.45,14.64q4.83,0,12.41-.36t15.52-1l17.22-1.34-2.85,25.88c-2.86.24-6.1.47-9.73.71s-7.49.48-11.6.72-8.33.5-12.67.8-8.54.57-12.58.8Q15.7,129.57,0,130.63Z"/><path class="cls-1" d="M206.12,60.77a116.88,116.88,0,0,1-7.5,20.7,111.23,111.23,0,0,1-11.86,19.63,89.2,89.2,0,0,1-16,16.42,79.19,79.19,0,0,1-19.54,11.33,59.86,59.86,0,0,1-22.57,4.28,46.53,46.53,0,0,1-5-.27c-1.67-.17-3.33-.38-5-.62q4.83-24.63,9.46-48,1.78-9.81,3.75-20.43t3.75-21q1.78-10.35,3.48-19.81t2.76-17.13q7.68-1.42,15.53-2.68A102.38,102.38,0,0,1,173.46,2q9.64,0,16.33,3a28.52,28.52,0,0,1,10.89,8.39,35.11,35.11,0,0,1,6.15,12.49,56.91,56.91,0,0,1,2,15.17A79.79,79.79,0,0,1,206.12,60.77ZM162.57,47.29q-2.13,9.65-4.28,19.46T154,87.27q-2.14,10.7-4.11,23.38a38.24,38.24,0,0,0,8.3-7.77,76.45,76.45,0,0,0,7.59-11.33A128.71,128.71,0,0,0,172.3,78q2.94-7.14,5.09-13.92a121.93,121.93,0,0,0,3.3-12.67,54.07,54.07,0,0,0,1.16-10.17c0-4.4-1.22-7.86-3.66-10.35s-6.28-3.75-11.51-3.75Q164.72,37.66,162.57,47.29Z"/><path class="cls-1" d="M250.91,130.28l-9.63,1.6q.71-5.88,1.42-11.6.54-5,1-10c.29-3.33.56-6.18.8-8.57H229l-7.14,25.7c-2.61.36-5.71.75-9.27,1.16l-10,1.16-11.24,1.43q7.13-23.73,14.1-46.76l6-20.16q3.12-10.53,6.25-21t6-20.08q2.85-9.63,5-17.67,12.13-.88,24.71-2.14T277.86,0q-.54,5.72-1.16,14.19t-1.16,18.47q-.54,10-1.07,20.88T273.4,75q-.9,24.63-2,52.29-5.35.9-10.71,1.43C257.75,129.15,254.48,129.68,250.91,130.28Zm-17.66-46.4q.7,0,2.58-.09l3.93-.18,3.84-.18a14.57,14.57,0,0,0,2.49-.27q0-1.06.27-3.66t.54-5.88c.18-2.21.38-4.61.62-7.23s.48-5.18.72-7.68q.7-9.09,1.78-19.63l1.07-15.52-2.68.18-4.1,15.34Z"/><path class="cls-1" d="M280.9,129.56l8.2-35.87c0-5.11-.09-10.68-.26-16.68S288.39,65,288,58.89,287.32,47,287,41.31s-.65-10.64-.89-15S285.47,17.2,285,12L314.09.89V31.77c0,3.09,0,6.13-.09,9.1s-.09,5.77-.09,8.39v6.6q2.32-6.06,5.62-15t6.16-17.31q3.39-9.81,7-20.7L360.31,9.1q-7.68,15.36-15,30.52-3,6.6-6.43,13.65l-6.78,14.1q-3.39,7-6.6,13.65t-5.89,12.31q-.9,4.65-2.23,10.18T314.8,114q-1.6,5.88-3.39,11.78Z"/><path class="cls-1" d="M410.9,106.27a44,44,0,0,1-10.35,14,46.16,46.16,0,0,1-15.35,9.11,55.21,55.21,0,0,1-19,3.21,29.91,29.91,0,0,1-14.28-3.84q-7.14-3.84-13.74-12.22l13.2-25.88a19.83,19.83,0,0,0,3.75,4.73,28.65,28.65,0,0,0,5.62,4.19,43,43,0,0,0,6.25,3,16.36,16.36,0,0,0,5.62,1.15,15,15,0,0,0,4.46-.71,14.38,14.38,0,0,0,4.29-2.14,11.88,11.88,0,0,0,3.12-3.3,8.15,8.15,0,0,0,1.16-4.37,12.85,12.85,0,0,0-2.77-7.94,39.5,39.5,0,0,0-6.87-7q-4.11-3.3-8.92-6.7a82.89,82.89,0,0,1-8.84-7.14A40.61,40.61,0,0,1,351.38,56a19.39,19.39,0,0,1-2.85-10.35,29.89,29.89,0,0,1,5.53-17.31,54.43,54.43,0,0,1,13.83-13.83A72.91,72.91,0,0,1,386,5.35,57.1,57.1,0,0,1,404.57,2a34.85,34.85,0,0,1,9.1,1.15,19.55,19.55,0,0,1,7.4,3.75,19,19,0,0,1,5,6.52,22.67,22.67,0,0,1,1.87,9.81,29.12,29.12,0,0,1-.44,5c-.3,1.66-.57,3.45-.81,5.35l-25.87,7.5c.23-.95.44-1.91.62-2.86a15.3,15.3,0,0,0,.27-2.86q0-5.34-1.87-7.76a6,6,0,0,0-4.91-2.41,7.87,7.87,0,0,0-3.48,1.07A24.12,24.12,0,0,0,387.34,29a16.22,16.22,0,0,0-3.48,4,9.34,9.34,0,0,0-1.42,5,10.66,10.66,0,0,0,2.41,7.14,31.08,31.08,0,0,0,6,5.36q3.57,2.49,7.77,5.08a34.31,34.31,0,0,1,7.76,6.69,34.92,34.92,0,0,1,6,10.27q2.4,6.15,2.41,15.61A41.79,41.79,0,0,1,410.9,106.27Z"/><path class="cls-1" d="M448,124.74a17.82,17.82,0,0,1-4.37,6,20.87,20.87,0,0,1-7.14,4.11,29.4,29.4,0,0,1-9.82,1.51,15.74,15.74,0,0,1-6.78-1.42,13.31,13.31,0,0,1-4.91-3.84,19.15,19.15,0,0,1-2.94-5.44,18.24,18.24,0,0,1-1.07-6.07,20.12,20.12,0,0,1,1.07-6.52,15.44,15.44,0,0,1,3.3-5.53,18.53,18.53,0,0,1,5.53-4,18,18,0,0,1,7.94-1.61q10.35,0,15.53,4.91T449.54,118A16.47,16.47,0,0,1,448,124.74Z"/><text class="cls-2" transform="translate(100.91 166.36)">MORE INFO COMING SOON.</text></g></g></svg>