<svg xmlns="http://www.w3.org/2000/svg" viewBox="0 0 281.15 80.58"><defs><style>.cls-1{fill:#fff;}</style></defs><title>Asset 6</title><g id="Layer_2" data-name="Layer 2"><g id="Layer_1-2" data-name="Layer 1"><path class="cls-1" d="M22.25,70.39h2l3.65,3.67,3.65-3.67h2v10h-2V73.21l-3.65,3.52-3.65-3.52v7.23h-2Z"/><path class="cls-1" d="M35.9,75.39a5.1,5.1,0,0,1,.42-2.09,4.74,4.74,0,0,1,1.17-1.62,5.39,5.39,0,0,1,1.81-1.05,7.62,7.62,0,0,1,4.69,0,5.39,5.39,0,0,1,1.81,1.05A4.64,4.64,0,0,1,47,73.3a5.1,5.1,0,0,1,.41,2.09,5.18,5.18,0,0,1-.41,2.1,4.81,4.81,0,0,1-1.18,1.64A5.27,5.27,0,0,1,44,80.2a7.43,7.43,0,0,1-4.69,0,5.27,5.27,0,0,1-1.81-1.07,4.92,4.92,0,0,1-1.17-1.64A5.18,5.18,0,0,1,35.9,75.39Zm2,0a3.33,3.33,0,0,0,.28,1.4A2.84,2.84,0,0,0,39,77.85a3.4,3.4,0,0,0,1.17.68,4.42,4.42,0,0,0,1.48.24,4.36,4.36,0,0,0,1.47-.24,3.44,3.44,0,0,0,1.18-.68,2.93,2.93,0,0,0,.77-1.06,3.52,3.52,0,0,0,0-2.8,2.86,2.86,0,0,0-.77-1,3.38,3.38,0,0,0-1.18-.65,4.62,4.62,0,0,0-1.47-.23,4.69,4.69,0,0,0-1.48.23A3.34,3.34,0,0,0,39,73a2.77,2.77,0,0,0-.78,1A3.3,3.3,0,0,0,37.94,75.39Z"/><path class="cls-1" d="M49.66,70.39h5.11a7.35,7.35,0,0,1,2,.24,3.88,3.88,0,0,1,1.41.7A2.93,2.93,0,0,1,59,72.44a3.92,3.92,0,0,1,.27,1.49A4.05,4.05,0,0,1,59.15,75a3,3,0,0,1-.41.93,3.35,3.35,0,0,1-.7.76,4.16,4.16,0,0,1-1,.55l2.18,3.21H56.73l-1.89-2.85H51.7v2.86h-2Zm5.16,5.43a3.37,3.37,0,0,0,1-.14,2,2,0,0,0,.73-.38,1.61,1.61,0,0,0,.44-.59,2.13,2.13,0,0,0,.14-.78,1.55,1.55,0,0,0-.58-1.3,2.72,2.72,0,0,0-1.74-.46H51.7v3.65Z"/><path class="cls-1" d="M61.7,70.39h8.56v1.79H63.74v2h5.77v1.67H63.74v2.8h6.65v1.78H61.7Z"/><path class="cls-1" d="M76.77,70.39h2v10h-2Z"/><path class="cls-1" d="M81.41,70.39h2l6.27,3.28V70.39h2v10h-2V75.83l-6.27-3.26v7.87h-2Z"/><path class="cls-1" d="M94.59,70.39h9v1.79H96.62v2.63h5.91v1.68H96.62v4h-2Z"/><path class="cls-1" d="M105,75.39a5.1,5.1,0,0,1,.42-2.09,4.74,4.74,0,0,1,1.17-1.62,5.39,5.39,0,0,1,1.81-1.05,7.62,7.62,0,0,1,4.69,0,5.39,5.39,0,0,1,1.81,1.05A4.64,4.64,0,0,1,116,73.3a5.1,5.1,0,0,1,.41,2.09,5.18,5.18,0,0,1-.41,2.1,4.81,4.81,0,0,1-1.18,1.64A5.27,5.27,0,0,1,113,80.2a7.43,7.43,0,0,1-4.69,0,5.27,5.27,0,0,1-1.81-1.07,4.92,4.92,0,0,1-1.17-1.64A5.18,5.18,0,0,1,105,75.39Zm2,0a3.33,3.33,0,0,0,.28,1.4,2.84,2.84,0,0,0,.78,1.06,3.4,3.4,0,0,0,1.17.68,4.42,4.42,0,0,0,1.48.24,4.36,4.36,0,0,0,1.47-.24,3.44,3.44,0,0,0,1.18-.68,2.93,2.93,0,0,0,.77-1.06,3.52,3.52,0,0,0,0-2.8,2.86,2.86,0,0,0-.77-1,3.38,3.38,0,0,0-1.18-.65,4.62,4.62,0,0,0-1.47-.23,4.69,4.69,0,0,0-1.48.23,3.34,3.34,0,0,0-1.17.65,2.77,2.77,0,0,0-.78,1A3.3,3.3,0,0,0,107,75.39Z"/><path class="cls-1" d="M122.47,75.36a5,5,0,0,1,.4-2,4.66,4.66,0,0,1,1.18-1.61,5.54,5.54,0,0,1,1.87-1.08,7.58,7.58,0,0,1,2.52-.39,9.34,9.34,0,0,1,2.25.25,7,7,0,0,1,1.91.75l-.94,1.55a3.17,3.17,0,0,0-.61-.31,5.19,5.19,0,0,0-.73-.23q-.39-.09-.81-.15a7.52,7.52,0,0,0-.82,0,5.81,5.81,0,0,0-1.74.24,4,4,0,0,0-1.29.68,2.91,2.91,0,0,0-.8,1,3.18,3.18,0,0,0-.27,1.32,3.46,3.46,0,0,0,.28,1.37,3.16,3.16,0,0,0,.82,1.07,4,4,0,0,0,1.32.71,5.56,5.56,0,0,0,1.75.25,6.51,6.51,0,0,0,.88-.06,5.69,5.69,0,0,0,.84-.18,4.89,4.89,0,0,0,.79-.27,6.67,6.67,0,0,0,.71-.34l.94,1.54a7.07,7.07,0,0,1-1.91.83,8.5,8.5,0,0,1-2.29.3,8.32,8.32,0,0,1-2.72-.41,5.56,5.56,0,0,1-2-1.1,4.63,4.63,0,0,1-1.18-1.66A5.38,5.38,0,0,1,122.47,75.36Z"/><path class="cls-1" d="M134.57,75.39A5.1,5.1,0,0,1,135,73.3a4.74,4.74,0,0,1,1.17-1.62A5.39,5.39,0,0,1,138,70.63a7.62,7.62,0,0,1,4.69,0,5.39,5.39,0,0,1,1.81,1.05,4.64,4.64,0,0,1,1.18,1.62,5.1,5.1,0,0,1,.41,2.09,5.18,5.18,0,0,1-.41,2.1,4.81,4.81,0,0,1-1.18,1.64,5.27,5.27,0,0,1-1.81,1.07,7.43,7.43,0,0,1-4.69,0,5.27,5.27,0,0,1-1.81-1.07A4.92,4.92,0,0,1,135,77.49,5.18,5.18,0,0,1,134.57,75.39Zm2,0a3.33,3.33,0,0,0,.28,1.4,2.84,2.84,0,0,0,.78,1.06,3.4,3.4,0,0,0,1.17.68,4.42,4.42,0,0,0,1.48.24,4.36,4.36,0,0,0,1.47-.24,3.44,3.44,0,0,0,1.18-.68,2.93,2.93,0,0,0,.77-1.06,3.52,3.52,0,0,0,0-2.8,2.86,2.86,0,0,0-.77-1,3.38,3.38,0,0,0-1.18-.65,4.62,4.62,0,0,0-1.47-.23,4.69,4.69,0,0,0-1.48.23,3.34,3.34,0,0,0-1.17.65,2.77,2.77,0,0,0-.78,1A3.3,3.3,0,0,0,136.61,75.39Z"/><path class="cls-1" d="M148.33,70.39h2L154,74.06l3.66-3.67h2v10h-2V73.21L154,76.73l-3.65-3.52v7.23h-2Z"/><path class="cls-1" d="M162.32,70.39h2.05v10h-2.05Z"/><path class="cls-1" d="M167,70.39h2l6.26,3.28V70.39h2v10h-2V75.83L169,72.57v7.87h-2Z"/><path class="cls-1" d="M179.44,75.32a5.07,5.07,0,0,1,.4-2,4.6,4.6,0,0,1,1.17-1.6,5.4,5.4,0,0,1,1.88-1.08,7.68,7.68,0,0,1,2.55-.39,9.24,9.24,0,0,1,1.05.06,7.14,7.14,0,0,1,1,.17,6.75,6.75,0,0,1,1,.29,7,7,0,0,1,.92.42l-.94,1.54a4.66,4.66,0,0,0-.59-.28q-.34-.12-.72-.21a6.85,6.85,0,0,0-.79-.13,7.52,7.52,0,0,0-.82,0,5.54,5.54,0,0,0-1.7.24,3.79,3.79,0,0,0-1.26.68,2.85,2.85,0,0,0-.78,1,3.18,3.18,0,0,0-.27,1.32,3.23,3.23,0,0,0,.28,1.37,3.17,3.17,0,0,0,.8,1.08,3.84,3.84,0,0,0,1.26.7,5.62,5.62,0,0,0,3,.09,3.6,3.6,0,0,0,1-.47,2.42,2.42,0,0,0,.73-.73,2.39,2.39,0,0,0,.38-1h-3.51V74.76h5.35a5.57,5.57,0,0,1,.1,1.51,4.83,4.83,0,0,1-.34,1.37,4.26,4.26,0,0,1-.75,1.19,4.55,4.55,0,0,1-1.14.93,5.6,5.6,0,0,1-1.5.6,7.63,7.63,0,0,1-1.85.22,7.3,7.3,0,0,1-2.51-.41A5.68,5.68,0,0,1,181,79a5,5,0,0,1-1.18-1.67A5.21,5.21,0,0,1,179.44,75.32Z"/><path class="cls-1" d="M198.14,77.45c.37.21.74.39,1.11.56a10.79,10.79,0,0,0,1.17.42,9.5,9.5,0,0,0,1.27.26,10.45,10.45,0,0,0,1.41.09,8.56,8.56,0,0,0,1.55-.12,3.86,3.86,0,0,0,1-.33,1.53,1.53,0,0,0,.58-.5,1.16,1.16,0,0,0,.18-.63,1,1,0,0,0-.45-.86,2.45,2.45,0,0,0-1.41-.32c-.28,0-.57,0-.88,0l-.94.12-.93.12a6.67,6.67,0,0,1-.86.06,4.64,4.64,0,0,1-1.3-.18,3.38,3.38,0,0,1-1.1-.52,2.55,2.55,0,0,1-.76-.87,2.46,2.46,0,0,1-.28-1.21,2.85,2.85,0,0,1,.11-.82A2.35,2.35,0,0,1,198,72a3,3,0,0,1,.64-.69,3.77,3.77,0,0,1,.95-.55,5.53,5.53,0,0,1,1.28-.36,9.22,9.22,0,0,1,1.67-.14,12.22,12.22,0,0,1,1.35.08c.46,0,.9.12,1.33.21s.84.2,1.24.32.77.27,1.12.42l-.9,1.65a9.6,9.6,0,0,0-.91-.35q-.5-.15-1-.27a9.88,9.88,0,0,0-1.11-.18,8.82,8.82,0,0,0-1.16-.07,6.54,6.54,0,0,0-1.38.12,3.34,3.34,0,0,0-.87.31,1.14,1.14,0,0,0-.44.43.89.89,0,0,0-.13.46.87.87,0,0,0,.41.74,2.15,2.15,0,0,0,1.23.29c.22,0,.48,0,.77,0l.91-.11,1-.1a8,8,0,0,1,1,0,5.39,5.39,0,0,1,1.57.2,3.18,3.18,0,0,1,1.15.57,2.43,2.43,0,0,1,.7.89,2.78,2.78,0,0,1,.24,1.17,3,3,0,0,1-.41,1.55,3.36,3.36,0,0,1-1.14,1.14,5.58,5.58,0,0,1-1.79.71,10.52,10.52,0,0,1-2.34.24,12.83,12.83,0,0,1-1.65-.1,11,11,0,0,1-1.56-.31,12.24,12.24,0,0,1-1.41-.46,12.11,12.11,0,0,1-1.25-.61Z"/><path class="cls-1" d="M210.25,75.39a5.1,5.1,0,0,1,.42-2.09,4.49,4.49,0,0,1,1.17-1.62,5.39,5.39,0,0,1,1.81-1.05,7.62,7.62,0,0,1,4.69,0,5.39,5.39,0,0,1,1.81,1.05,4.49,4.49,0,0,1,1.17,1.62,5.1,5.1,0,0,1,.42,2.09,5.18,5.18,0,0,1-.42,2.1,4.65,4.65,0,0,1-1.17,1.64,5.27,5.27,0,0,1-1.81,1.07,7.43,7.43,0,0,1-4.69,0,5.27,5.27,0,0,1-1.81-1.07,4.65,4.65,0,0,1-1.17-1.64A5.18,5.18,0,0,1,210.25,75.39Zm2,0a3.5,3.5,0,0,0,.27,1.4,3.08,3.08,0,0,0,.78,1.06,3.54,3.54,0,0,0,1.18.68,4.65,4.65,0,0,0,2.95,0,3.4,3.4,0,0,0,1.17-.68,3.08,3.08,0,0,0,.78-1.06,3.64,3.64,0,0,0,0-2.8,3,3,0,0,0-.78-1,3.34,3.34,0,0,0-1.17-.65,4.84,4.84,0,0,0-2.95,0,3.48,3.48,0,0,0-1.18.65,3,3,0,0,0-.78,1A3.46,3.46,0,0,0,212.29,75.39Z"/><path class="cls-1" d="M223.41,75.39a5.1,5.1,0,0,1,.42-2.09A4.64,4.64,0,0,1,225,71.68a5.29,5.29,0,0,1,1.81-1.05,7.58,7.58,0,0,1,4.68,0,5.43,5.43,0,0,1,1.82,1.05,4.74,4.74,0,0,1,1.17,1.62,5.1,5.1,0,0,1,.42,2.09,5.18,5.18,0,0,1-.42,2.1,4.92,4.92,0,0,1-1.17,1.64,5.31,5.31,0,0,1-1.82,1.07,7.39,7.39,0,0,1-4.68,0A5.17,5.17,0,0,1,225,79.13a4.81,4.81,0,0,1-1.18-1.64A5.18,5.18,0,0,1,223.41,75.39Zm2,0a3.5,3.5,0,0,0,.28,1.4,3.08,3.08,0,0,0,.78,1.06,3.35,3.35,0,0,0,1.18.68,4.36,4.36,0,0,0,1.47.24,4.42,4.42,0,0,0,1.48-.24,3.4,3.4,0,0,0,1.17-.68,3.08,3.08,0,0,0,.78-1.06,3.64,3.64,0,0,0,0-2.8,3,3,0,0,0-.78-1,3.34,3.34,0,0,0-1.17-.65,4.69,4.69,0,0,0-1.48-.23,4.62,4.62,0,0,0-1.47.23,3.3,3.3,0,0,0-1.18.65,3,3,0,0,0-.78,1A3.46,3.46,0,0,0,225.45,75.39Z"/><path class="cls-1" d="M237.16,70.39h2l6.26,3.28V70.39h2v10h-2V75.83l-6.26-3.26v7.87h-2Z"/><path class="cls-1" d="M250.14,79.33a1.21,1.21,0,0,1,.11-.49,1.14,1.14,0,0,1,.3-.39,1.42,1.42,0,0,1,.48-.27,1.87,1.87,0,0,1,.64-.1,1.83,1.83,0,0,1,.64.1,1.25,1.25,0,0,1,.48.27,1.14,1.14,0,0,1,.3.39,1.19,1.19,0,0,1,.1.49,1.12,1.12,0,0,1-.1.48,1.08,1.08,0,0,1-.3.4,1.58,1.58,0,0,1-.48.27,2.1,2.1,0,0,1-.64.1,2.15,2.15,0,0,1-.64-.1,1.87,1.87,0,0,1-.48-.27,1.08,1.08,0,0,1-.3-.4A1.13,1.13,0,0,1,250.14,79.33Z"/><path class="cls-1" d="M14.11,54l1.44-11.52-12.38.94L0,36.94Q2.37,29.8,4.54,23.33q.93-2.74,1.87-5.65C7,15.73,7.64,13.85,8.24,12s1.17-3.55,1.7-5.18,1-3,1.44-4.25c2,0,3.92-.06,5.72-.18s3.73-.32,5.8-.61Q20.23,8.49,18,15.26T13.54,29c0,.33-.1.62-.15.86s-.12.53-.21.86h5.11c.05-.33.14-.87.29-1.62l.5-2.62c.19-1,.4-2.12.61-3.32s.45-2.42.69-3.67q.72-4.17,1.72-9.14c1.54-.24,3.1-.46,4.68-.65,1.3-.19,2.64-.36,4-.5s2.59-.27,3.6-.36c-.05.48-.18,1.29-.4,2.44s-.46,2.45-.72,3.89-.53,3-.79,4.61S32,23,31.68,24.41s-.53,2.73-.72,3.89-.34,2-.43,2.44h4.1l-3,11.52H28l-.65,9.44Z"/><path class="cls-1" d="M71.64,42.8a20,20,0,0,1-4.72,6.05,23.39,23.39,0,0,1-7,4.21,23.08,23.08,0,0,1-8.61,1.59A24.56,24.56,0,0,1,45.39,54a13.92,13.92,0,0,1-4.75-2.08,9.57,9.57,0,0,1-3.09-3.68,12.09,12.09,0,0,1-1.12-5.43A22.34,22.34,0,0,1,37,37.69a17.57,17.57,0,0,1,2-5,18.22,18.22,0,0,1,3.6-4.36A15.33,15.33,0,0,1,48,25.27a12.74,12.74,0,0,1-3.42-4,9.48,9.48,0,0,1-1-4.32,11.34,11.34,0,0,1,1.9-6.16,20.53,20.53,0,0,1,5-5.29,27.36,27.36,0,0,1,7-3.74A22.45,22.45,0,0,1,65.16.29a14.5,14.5,0,0,1,5.36.9A11,11,0,0,1,74.3,3.6a9.78,9.78,0,0,1,2.27,3.53,11.67,11.67,0,0,1,.76,4.1,13.36,13.36,0,0,1-.58,3.85,14.15,14.15,0,0,1-1.69,3.64,15.72,15.72,0,0,1-2.74,3.17,14.16,14.16,0,0,1-3.71,2.37,17,17,0,0,1,3.64,5.58,16.26,16.26,0,0,1,1.12,5.8A15.65,15.65,0,0,1,71.64,42.8Zm-23.33-.54c1,.92,2.62,1.37,5,1.37a14.67,14.67,0,0,0,4.39-.57,7.86,7.86,0,0,0,2.88-1.55,5.65,5.65,0,0,0,1.55-2.2,6.62,6.62,0,0,0,.47-2.37q0-3.67-1.55-5.15a5.13,5.13,0,0,0-3.64-1.48,9.51,9.51,0,0,0-3.6.76,13.32,13.32,0,0,0-3.42,2,11.29,11.29,0,0,0-2.52,2.85,6,6,0,0,0-1,3.17A4.23,4.23,0,0,0,48.31,42.26Zm7.52-21.42a3.51,3.51,0,0,0,2.85,1.26,5.76,5.76,0,0,0,2.59-.64,10.84,10.84,0,0,0,2.34-1.59,8.23,8.23,0,0,0,1.73-2.16A4.69,4.69,0,0,0,66,15.48a2.57,2.57,0,0,0-.47-1.58,3.65,3.65,0,0,0-1.22-1.08,5.67,5.67,0,0,0-1.62-.62A8.47,8.47,0,0,0,61,12a6.36,6.36,0,0,0-2.73.54,6.5,6.5,0,0,0-2,1.37,5,5,0,0,0-1.15,1.91A6.8,6.8,0,0,0,54.79,18,4.35,4.35,0,0,0,55.83,20.84Z"/><path class="cls-1" d="M92.73,54q1.88-9.93,3.68-19.51.65-4,1.44-8.39c.52-2.9,1-5.77,1.51-8.6s.93-5.58,1.37-8.25.81-5.1,1.15-7.31l11.66-.79q-1.22,5-2.41,10.51t-2.2,10.66l7.13-.79q1-5.12,1.8-9.9T120,1.73c1.1-.19,2.33-.35,3.67-.47l3.75-.32,4.1-.36q-1,3.24-1.91,7.09t-1.76,8q-.87,4.14-1.66,8.39t-1.44,8.06q-1.58,9.15-3,18.72l-11.23,1.3q.93-4.32,1.65-8.43c.48-2.3,1-4.7,1.48-7.2s.9-4.63,1.19-6.4l-7,.64c-.33,1.83-.73,3.94-1.18,6.34s-.88,4.68-1.26,6.84l-1.59,7.78Z"/><path class="cls-1" d="M165.85,26a48.31,48.31,0,0,1-3.35,9.57,38.86,38.86,0,0,1-4.86,7.78,38.08,38.08,0,0,1-5.8,5.83,24.65,24.65,0,0,1-6.12,3.67,15.63,15.63,0,0,1-5.9,1.26,10.19,10.19,0,0,1-4.32-.9,9.38,9.38,0,0,1-3.38-2.66A12.88,12.88,0,0,1,129.85,46a23.45,23.45,0,0,1-.83-6.66,38.76,38.76,0,0,1,1-8.49A60.6,60.6,0,0,1,132.76,22,49.67,49.67,0,0,1,137,13.68a41.89,41.89,0,0,1,5.55-7A25.81,25.81,0,0,1,149,1.8a15.37,15.37,0,0,1,7.2-1.8,9.91,9.91,0,0,1,5.36,1.33,9.46,9.46,0,0,1,3.31,3.46,15.63,15.63,0,0,1,1.69,4.79,28.19,28.19,0,0,1,.51,5.32A47.32,47.32,0,0,1,165.85,26ZM140,39.17a4.93,4.93,0,0,0,.79,1.51,4.73,4.73,0,0,0,1.26,1.12,3,3,0,0,0,1.62.46A8.43,8.43,0,0,0,149.47,40a18.34,18.34,0,0,0,4.17-5.47,31.37,31.37,0,0,0,2.56-6.91,28.36,28.36,0,0,0,.9-6.7,18.25,18.25,0,0,0-.11-1.87,7.31,7.31,0,0,0-.43-1.87,3.69,3.69,0,0,0-1-1.48,2.68,2.68,0,0,0-1.83-.61,8.14,8.14,0,0,0-4.25,1.15A13.06,13.06,0,0,0,146,19.33a20.78,20.78,0,0,0-2.7,4.32,41.84,41.84,0,0,0-2,4.9,28.19,28.19,0,0,0-1.19,4.86,27.88,27.88,0,0,0-.36,4.1A5.05,5.05,0,0,0,140,39.17Z"/><path class="cls-1" d="M194.11,43.92l-1.84,2.88A17.84,17.84,0,0,1,188,51.55a17.12,17.12,0,0,1-5.29,2.74,19.18,19.18,0,0,1-5.62.86,11.29,11.29,0,0,1-3.38-.54,9.66,9.66,0,0,1-3.1-1.62,8.79,8.79,0,0,1-2.26-2.73,8,8,0,0,1-.9-3.89v-.58a2.22,2.22,0,0,1,.07-.57q.28-3,.93-7.13c.44-2.78.89-5.69,1.37-8.71s1-6.06,1.59-9.11,1.09-5.82,1.54-8.32.86-4.57,1.19-6.23.55-2.67.65-3.06q1.51-.14,3.6-.36c1.39-.14,2.69-.26,3.89-.36l4.39-.43q-1.87,8.72-3.31,15.77c-.43,2-.85,4-1.26,6s-.79,3.86-1.15,5.54-.68,3.13-.94,4.36-.48,2.22-.65,3-.36,1.74-.57,2.91a17.66,17.66,0,0,0-.33,3.21,3,3,0,0,0,.58,1.9,1.72,1.72,0,0,0,1.44.76,2.47,2.47,0,0,0,2-1,8.8,8.8,0,0,0,1.34-2.34,14.73,14.73,0,0,0,.79-2.77c.17-.94.32-1.67.47-2.2.28-1.39.61-2.94,1-4.64s.72-3.48,1.08-5.33.72-3.73,1.08-5.65.71-3.79,1-5.62q1.23-6.33,2.38-13.1l10.94-.72q-.72,3.74-1.29,6.84T200,15.55q-.69,4-1.55,8.25t-1.69,8.42q-.84,4.14-1.62,7.6C194.44,42.55,194.11,43.92,194.11,43.92Z"/><path class="cls-1" d="M198.5,53.93q2-9.59,3.74-18.72c.44-2.59.91-5.29,1.44-8.1s1-5.59,1.48-8.35.89-5.43,1.3-8,.73-4.9,1-7a51.57,51.57,0,0,1,8.85-1.9,73.46,73.46,0,0,1,9.44-.62,14.15,14.15,0,0,1,4.64.65,6.77,6.77,0,0,1,2.88,1.84,6.94,6.94,0,0,1,1.48,2.77,13.76,13.76,0,0,1,.43,3.53,16.47,16.47,0,0,1-1,5.65,23.59,23.59,0,0,1-2.7,5.26,27.07,27.07,0,0,1-3.89,4.53,20.6,20.6,0,0,1-4.71,3.35q1.29,2.88,2.77,6.3c1,2.28,1.91,4.45,2.77,6.52q1.44,3.6,3,7.2L220.17,52.7q-1.44-5-2.59-9.36c-.34-1.19-.67-2.43-1-3.7s-.65-2.47-.93-3.6-.53-2.13-.72-3a15.41,15.41,0,0,1-.36-2l-.94.29q-.44,2.31-1,5.62c-.41,2.2-.79,4.34-1.12,6.4q-.65,3.67-1.3,7.56Zm16.92-31.25a10.23,10.23,0,0,0,3.35-1.15,23.66,23.66,0,0,0,3.78-2.41,21.21,21.21,0,0,0,3.09-2.92,4.38,4.38,0,0,0,1.3-2.66,1.65,1.65,0,0,0-.5-1.26,3.35,3.35,0,0,0-1.41-.72,9.74,9.74,0,0,0-2-.33c-.72,0-1.46-.07-2.23-.07-.53,0-1.07,0-1.62,0l-1.48,0Z"/><path class="cls-1" d="M262.69,43.38A17.81,17.81,0,0,1,258.51,49a18.36,18.36,0,0,1-6.19,3.67,22.14,22.14,0,0,1-7.67,1.3,12,12,0,0,1-5.76-1.55,18.1,18.1,0,0,1-5.54-4.93l5.33-10.44A7.55,7.55,0,0,0,240.19,39a11,11,0,0,0,2.27,1.69A16,16,0,0,0,245,41.87a6.57,6.57,0,0,0,2.26.47,6.14,6.14,0,0,0,1.8-.29,5.63,5.63,0,0,0,1.73-.87A4.54,4.54,0,0,0,252,39.85a3.28,3.28,0,0,0,.47-1.76,5.2,5.2,0,0,0-1.12-3.21,15.89,15.89,0,0,0-2.77-2.8q-1.65-1.33-3.6-2.7a36,36,0,0,1-3.56-2.88,16.06,16.06,0,0,1-2.77-3.39,7.77,7.77,0,0,1-1.16-4.17,12.08,12.08,0,0,1,2.24-7,21.76,21.76,0,0,1,5.58-5.58,29.69,29.69,0,0,1,7.3-3.71,23,23,0,0,1,7.49-1.36,14,14,0,0,1,3.67.46,7.84,7.84,0,0,1,3,1.52,7.67,7.67,0,0,1,2,2.62,9.26,9.26,0,0,1,.75,4,11.41,11.41,0,0,1-.18,2c-.12.67-.23,1.39-.32,2.16l-10.44,3c.09-.38.18-.76.25-1.15a6.31,6.31,0,0,0,.11-1.15,5.09,5.09,0,0,0-.76-3.13,2.37,2.37,0,0,0-2-1,3.14,3.14,0,0,0-1.4.43,10,10,0,0,0-1.66,1.11,6.6,6.6,0,0,0-1.4,1.62,3.76,3.76,0,0,0-.58,2,4.31,4.31,0,0,0,1,2.88,12.16,12.16,0,0,0,2.41,2.16c1,.67,2,1.36,3.13,2.05a13.83,13.83,0,0,1,3.13,2.7,14,14,0,0,1,2.41,4.14,17.43,17.43,0,0,1,1,6.3A16.91,16.91,0,0,1,262.69,43.38Z"/><path class="cls-1" d="M280.54,50.83a7,7,0,0,1-1.76,2.41,8.42,8.42,0,0,1-2.88,1.66,11.77,11.77,0,0,1-4,.61,6.43,6.43,0,0,1-2.74-.57,5.48,5.48,0,0,1-2-1.55,7.9,7.9,0,0,1-1.19-2.2,7.48,7.48,0,0,1-.43-2.45,8.22,8.22,0,0,1,.43-2.62,6.31,6.31,0,0,1,1.34-2.24,7.68,7.68,0,0,1,2.23-1.62,7.28,7.28,0,0,1,3.2-.64c2.79,0,4.87.66,6.27,2a6.06,6.06,0,0,1,2.08,4.5A6.59,6.59,0,0,1,280.54,50.83Z"/></g></g></svg>