<?xml version="1.0" encoding="utf-8"?>
<!-- Generator: Adobe Illustrator 21.0.2, SVG Export Plug-In . SVG Version: 6.00 Build 0)  -->
<svg version="1.1" id="Layer_1" xmlns="http://www.w3.org/2000/svg" xmlns:xlink="http://www.w3.org/1999/xlink" x="0px" y="0px"
	 viewBox="0 0 500 500" style="enable-background:new 0 0 500 500;" xml:space="preserve">
<style type="text/css">
	.st0{fill:url(#path4275_1_);}
	.st1{fill:url(#path4283_1_);}
	.st2{fill:url(#ellipse4285_1_);}
	.st3{fill:none;stroke:#010101;stroke-width:3;}
	.st4{fill:url(#SVGID_1_);stroke:#010101;stroke-width:2.55;stroke-linecap:round;stroke-linejoin:round;}
	.st5{fill:url(#SVGID_2_);stroke:#010101;stroke-width:2.55;stroke-linecap:round;stroke-linejoin:round;}
</style>
<title>bword</title>
<g id="layer1">
	<g id="g4796">
		
			<linearGradient id="path4275_1_" gradientUnits="userSpaceOnUse" x1="316.5404" y1="238.6896" x2="315.4904" y2="465.9697" gradientTransform="matrix(0.6 0 0 0.6 71.05 8.15)">
			<stop  offset="0" style="stop-color:#EE3324"/>
			<stop  offset="1" style="stop-color:#FECF0A"/>
		</linearGradient>
		<path id="path4275" class="st0" d="M325.8,143l-33.4,1.2l-15.5,62.1l-1.2-60.9l-29.8,3.6l-4.8,31l-6-33.4l-37,4.8l-8.4,53.7
			l-10.8-3.6c0,0,17.9-13.1,8.4-33.4s-58.5,7.2-58.5,7.2l-6,130.1c0,0,19.1,15.5,53.7-25.1v20.3l23.9-2.4l6-49l14.3-3.6v58.5
			l23.9-1.1l9.6-50.1l2.4,35.8l22.7-1.2l13.1-35.8l-2.4,46.6h26.3l17.9-57.3l19.1-1.2l11.9-20.3l-21.5-8.4l11.9-33.4l31-4.8
			l11.9-28.7l-62.1,2.4l-17.9,56.1L325.8,143z M217.1,177.7l1.2,40.6l-9.6,1.2L217.1,177.7z M161.6,185.3
			c7.9,0.1-10.2,17.4-10.2,17.4v-14.3C156.6,186.2,159.8,185.3,161.6,185.3L161.6,185.3z M177.4,232.3c1.3,0,2.6,0.1,3.9,0.3
			c0,11.9-33.4,41.8-33.4,41.8l1.1-34.6C161.4,233.2,172,232.3,177.4,232.3L177.4,232.3z"/>
		
			<linearGradient id="path4283_1_" gradientUnits="userSpaceOnUse" x1="555.83" y1="239.7922" x2="554.79" y2="467.0722" gradientTransform="matrix(0.6 0 0 0.6 71.05 8.15)">
			<stop  offset="0" style="stop-color:#EE3324"/>
			<stop  offset="1" style="stop-color:#FECF0A"/>
		</linearGradient>
		<path id="path4283" class="st1" d="M412.9,145.4l26.3,6l-45.4,81.2c0,0-3.6,9.6-17.9,8.4s0-31,0-31L412.9,145.4z"/>
		
			<linearGradient id="ellipse4285_1_" gradientUnits="userSpaceOnUse" x1="483.1219" y1="239.4516" x2="482.0719" y2="466.7316" gradientTransform="matrix(0.6 0 0 0.6 71.05 8.15)">
			<stop  offset="0" style="stop-color:#EE3324"/>
			<stop  offset="1" style="stop-color:#FECF0A"/>
		</linearGradient>
		<ellipse id="ellipse4285" class="st2" cx="360.4" cy="267.2" rx="17.9" ry="20.3"/>
	</g>
	<g id="g4749">
		<path id="path4751" class="st3" d="M129.4,174.5l-6,130.2c0,0,19.1,15.5,53.7-25.1v20.3l23.9-2.4l6-49l14.3-3.6v58.5l23.9-1.2
			l9.6-50.1l2.4,35.8l22.7-1.2l13.2-35.8l-2.4,46.6h26.3l17.9-57.3l19.1-1.2l11.9-20.3l-21.5-8.4l11.9-33.4l31-4.8l11.9-28.7
			l-62.1,2.4l-17.9,56.1l7.2-59.7l-33.3,1.2l-15.5,62.1l-1.2-60.9l-29.9,3.6l-4.8,31l-6-33.4l-37,4.8l-8.4,53.7l-10.8-3.6
			c0,0,17.9-13.1,8.4-33.4S129.4,174.5,129.4,174.5L129.4,174.5z"/>
		<path id="path4753" class="st3" d="M152.1,187.6v14.3C152.1,201.9,179.5,175.7,152.1,187.6z"/>
		<path id="path4755" class="st3" d="M149.7,239l-1.2,34.6c0,0,33.4-29.9,33.4-41.8C181.9,231.8,167.6,229.4,149.7,239z"/>
		<path id="path4757" class="st3" d="M209.4,218.7l8.4-41.8l1.2,40.6L209.4,218.7z"/>
		<path id="path4759" class="st3" d="M413.6,144.6l26.3,6l-45.4,81.2c0,0-3.6,9.6-17.9,8.4s0-31,0-31L413.6,144.6z"/>
		<ellipse id="ellipse4761" class="st3" cx="361" cy="266.4" rx="17.9" ry="20.3"/>
	</g>
	
		<linearGradient id="SVGID_1_" gradientUnits="userSpaceOnUse" x1="376.9637" y1="385.5251" x2="370.2037" y2="287.8951" gradientTransform="matrix(0.9951 -9.879873e-02 -9.879873e-02 -0.9951 -117.495 685.1788)">
		<stop  offset="0" style="stop-color:#EE3324"/>
		<stop  offset="1" style="stop-color:#FECF0A"/>
	</linearGradient>
	<path class="st4" d="M239,309.1c-5.4,0.5-9.3,2.5-11.7,5.9c-2.4,3.4-3.3,7.8-2.8,13.2l2.7,27c0.1,0.8,0.2,1.5,0.3,2.2l-17.7,4.3
		l8-21.9c1.5-4,2.7-7.1,3.3-9.3c0.7-2.3,1.2-4.6,1.4-7c0.3-2.6,0.1-5.2-0.6-7.7c-1.4-5.8-4.1-9.9-8.1-12.3c-4-2.4-9-2.9-15.1-1.4
		c-6.6,1.6-11,4.7-13.2,9.3s-2.5,10.2-1,16.6l0.9,3.7l13.8-3.3l-0.8-3.4c-0.7-2.4-0.8-4.8-0.4-7.2c0.4-1.9,2-3.3,3.9-3.6
		c1.3-0.4,2.6-0.1,3.6,0.7c1.2,1.1,1.9,2.5,2.2,4.1c0.6,2.4,0.6,4.8,0.1,7.2c-0.7,3.2-1.6,6.3-2.8,9.3l-0.6,1.8l-10.4,29.3l2.4,10
		l36-8.7l-0.2-0.9l0.2,0.2c3.1,2.8,7.3,4,12.5,3.4c5.3-0.5,9.1-2.5,11.5-5.9c2.5-3.4,3.5-7.7,3-12.8l-2.7-27
		c-0.5-5.4-2.3-9.6-5.3-12.4C248.6,309.7,244.4,308.5,239,309.1z M247,353c0.2,1.5,0.1,3.1-0.2,4.6c-0.3,1.3-1.5,2.2-2.8,2.2
		c-2.5,0.2-3.9-1.8-4.3-6l-2.6-26.5c-0.2-1.7-0.2-3.4,0.1-5c0.6-1.8,2.6-2.7,4.4-2c0.7,0.3,1.3,0.8,1.7,1.4c0.6,1.5,1,3.2,1.1,4.8
		L247,353z"/>
	
		<linearGradient id="SVGID_2_" gradientUnits="userSpaceOnUse" x1="440.8546" y1="381.0936" x2="434.0846" y2="283.4636" gradientTransform="matrix(0.9951 -9.879873e-02 -9.879873e-02 -0.9951 -117.495 685.1788)">
		<stop  offset="0" style="stop-color:#EE3324"/>
		<stop  offset="1" style="stop-color:#FECF0A"/>
	</linearGradient>
	<path class="st5" d="M313,344.9c-0.4-3-1.4-5.9-3.1-8.5c-1.4-2.2-3.5-3.9-6-4.7c1.7-1.6,2.9-3.6,3.4-5.9c0.7-2.9,0.8-5.9,0.3-8.8
		c-0.7-4.7-2.6-8.2-5.6-10.5c-3-2.3-7-3-11.8-2.3c-4.9,0.7-8.4,2.7-10.7,5.8c-0.1,0.2-0.3,0.4-0.4,0.6l0.7-8.1l-9.6-0.8
		c-1.4,1.3-5.2,3.2-11.4,5.7l-0.8,9.1c0.7-0.3,1.4-0.6,2.1-0.8l1.9-0.6c2.4-0.8,3.9-1.3,4.4-1.5l-4.1,47.5l12.3,1.1l3.3-37.5
		c0.5,1.8,1.3,3.6,2.3,5.1c1.3,1.9,3,3.5,5,4.6c-2.1,1.5-3.7,3.7-4.3,6.2c-0.8,2.8-0.9,5.8-0.4,8.7c0.9,5.7,2.8,10,5.9,12.8
		s7.4,3.9,13.1,3c5.7-0.9,9.5-3.1,11.6-6.6C313.2,355,313.8,350.5,313,344.9z M289,315.5c0.4-1.1,1.4-2,2.5-2.1
		c1.2-0.2,2.4,0.3,3,1.3c0.9,1.4,1.5,3,1.7,4.6c0.9,5.9,0.1,9-2.3,9.4c-2.4,0.4-4.2-2.4-5.2-8.3C288.4,318.7,288.5,317,289,315.5z
		 M301.3,350.5c0.1,1.2-0.1,2.5-0.6,3.6c-0.4,1.1-1.5,1.9-2.6,2c-1.6,0.3-3.1-0.5-3.7-2c-0.9-1.9-1.5-3.9-1.7-6
		c-0.4-2.3-0.5-4.6-0.2-6.9c0.4-2,2.3-3.3,4.2-2.9c1,0.2,1.9,0.8,2.4,1.6c0.9,1.8,1.5,3.8,1.8,5.9
		C301,347.7,301.2,349.3,301.3,350.5L301.3,350.5z"/>
</g>
</svg>
