<svg id="Layer_1" data-name="Layer 1" xmlns="http://www.w3.org/2000/svg" xmlns:xlink="http://www.w3.org/1999/xlink" viewBox="0 0 500 500"><defs><style>.cls-1,.cls-6{fill:none;}.cls-2{fill:#010101;}.cls-3{fill:url(#linear-gradient);}.cls-4{fill:url(#linear-gradient-2);}.cls-5{fill:url(#linear-gradient-3);}.cls-10,.cls-6,.cls-9{stroke:#010101;}.cls-6{stroke-width:3px;}.cls-7{fill:url(#Polkadots-med);}.cls-8{fill:url(#Polkadots-med-3);}.cls-10,.cls-9{stroke-linecap:round;stroke-linejoin:round;stroke-width:2.55px;}.cls-9{fill:url(#linear-gradient-4);}.cls-10{fill:url(#linear-gradient-5);}.cls-11{fill:url(#Polkadots-med-7);}</style><linearGradient id="linear-gradient" x1="362.56" y1="361.98" x2="361.51" y2="134.7" gradientTransform="matrix(0.6, 0, 0, -0.6, 43.05, 368.55)" gradientUnits="userSpaceOnUse"><stop offset="0" stop-color="#ee3324"/><stop offset="1" stop-color="#fecf0a"/></linearGradient><linearGradient id="linear-gradient-2" x1="601.29" y1="360.88" x2="600.25" y2="133.6" xlink:href="#linear-gradient"/><linearGradient id="linear-gradient-3" x1="528.72" y1="361.22" x2="527.67" y2="133.94" xlink:href="#linear-gradient"/><pattern id="Polkadots-med" data-name="Polkadots-med" width="8" height="8" patternTransform="matrix(3.26, 0, 0, -3.26, 70.73, 848.87)" patternUnits="userSpaceOnUse" viewBox="0 0 8 8"><rect class="cls-1" width="8" height="8"/><circle id="circle5829" class="cls-2" cx="2.05" cy="7.35" r="0.12"/><circle id="circle5831" class="cls-2" cx="2.44" cy="6.14" r="0.12"/><circle id="circle5833" class="cls-2" cx="3.53" cy="6.07" r="0.12"/><circle id="circle5835" class="cls-2" cx="1.48" cy="5.58" r="0.12"/><circle id="circle5837" class="cls-2" cx="4.86" cy="6.91" r="0.12"/><circle id="circle5839" class="cls-2" cx="4.66" cy="4.47" r="0.12"/><circle id="circle5841" class="cls-2" cx="3.44" cy="4.76" r="0.12"/><circle id="circle5843" class="cls-2" cx="4.43" cy="5.56" r="0.12"/><circle id="circle5845" class="cls-2" cx="3.83" cy="3.58" r="0.12"/><circle id="circle5847" class="cls-2" cx="2.13" cy="3.85" r="0.12"/><circle id="circle5849" class="cls-2" cx="6.37" cy="6.84" r="0.12"/><circle id="circle5851" class="cls-2" cx="5.64" cy="3.96" r="0.12"/><circle id="circle5853" class="cls-2" cx="3.47" cy="7.28" r="0.12"/><circle id="circle5855" class="cls-2" cx="5.7" cy="7.73" r="0.12"/><circle id="circle5857" class="cls-2" cx="7.64" cy="7.16" r="0.12"/><circle id="circle5859" class="cls-2" cx="5.6" cy="5.85" r="0.12"/><circle id="circle5861" class="cls-2" cx="7.13" cy="5.85" r="0.12"/><circle id="circle5863" class="cls-2" cx="7.45" cy="4.47" r="0.12"/><circle id="circle5865" class="cls-2" cx="6.26" cy="4.9" r="0.12"/><circle id="circle5867" class="cls-2" cx="6.62" cy="3.24" r="0.12"/><circle id="circle5869" class="cls-2" cx="6.38" cy="2.06" r="0.12"/><circle id="circle5871" class="cls-2" cx="7.47" cy="1.54" r="0.12"/><circle id="circle5873" class="cls-2" cx="6.56" cy="0.55" r="0.12"/><circle id="circle5875" class="cls-2" cx="7.75" cy="0.42" r="0.12"/><circle id="circle5877" class="cls-2" cx="7.75" cy="3.05" r="0.12"/><circle id="circle5879" class="cls-2" cx="2.7" cy="2.96" r="0.12"/><circle id="circle5881" class="cls-2" cx="2.3" cy="1.44" r="0.12"/><circle id="circle5883" class="cls-2" cx="3.67" cy="1.02" r="0.12"/><circle id="circle5885" class="cls-2" cx="2.54" cy="0.26" r="0.12"/><circle id="circle5887" class="cls-2" cx="4.59" cy="2.15" r="0.12"/><circle id="circle5889" class="cls-2" cx="5.37" cy="2.79" r="0.12"/><circle id="circle5891" class="cls-2" cx="4.58" cy="0.26" r="0.12"/><circle id="circle5893" class="cls-2" cx="5.23" cy="1.3" r="0.12"/><circle id="circle5895" class="cls-2" cx="3.5" cy="2.28" r="0.12"/><circle id="circle5897" class="cls-2" cx="0.5" cy="2.2" r="0.12"/><circle id="circle5899" class="cls-2" cx="0.66" cy="3.46" r="0.12"/><circle id="circle5901" class="cls-2" cx="1.01" cy="1.18" r="0.12"/><circle id="circle5903" class="cls-2" cx="1.59" cy="2.5" r="0.12"/><circle id="circle5905" class="cls-2" cx="0.3" cy="5.46" r="0.12"/><circle id="circle5907" class="cls-2" cx="0.93" cy="6.67" r="0.12"/><circle id="circle5909" class="cls-2" cx="0.92" cy="7.93" r="0.12"/><circle id="circle5911" class="cls-2" cx="0.92" cy="-0.07" r="0.12"/><circle id="circle5913" class="cls-2" cx="1.04" cy="4.44" r="0.12"/><circle id="circle5915" class="cls-2" cx="2.44" cy="4.99" r="0.12"/></pattern><pattern id="Polkadots-med-3" data-name="Polkadots-med" width="8" height="8" patternTransform="matrix(3.26, 0, 0, -3.26, 70.73, 949.4)" patternUnits="userSpaceOnUse" viewBox="0 0 8 8"><rect class="cls-1" width="8" height="8"/><circle id="circle5829-2" data-name="circle5829" class="cls-2" cx="2.05" cy="7.35" r="0.12"/><circle id="circle5831-2" data-name="circle5831" class="cls-2" cx="2.44" cy="6.14" r="0.12"/><circle id="circle5833-2" data-name="circle5833" class="cls-2" cx="3.53" cy="6.07" r="0.12"/><circle id="circle5835-2" data-name="circle5835" class="cls-2" cx="1.48" cy="5.58" r="0.12"/><circle id="circle5837-2" data-name="circle5837" class="cls-2" cx="4.86" cy="6.91" r="0.12"/><circle id="circle5839-2" data-name="circle5839" class="cls-2" cx="4.66" cy="4.47" r="0.12"/><circle id="circle5841-2" data-name="circle5841" class="cls-2" cx="3.44" cy="4.76" r="0.12"/><circle id="circle5843-2" data-name="circle5843" class="cls-2" cx="4.43" cy="5.56" r="0.12"/><circle id="circle5845-2" data-name="circle5845" class="cls-2" cx="3.83" cy="3.58" r="0.12"/><circle id="circle5847-2" data-name="circle5847" class="cls-2" cx="2.13" cy="3.85" r="0.12"/><circle id="circle5849-2" data-name="circle5849" class="cls-2" cx="6.37" cy="6.84" r="0.12"/><circle id="circle5851-2" data-name="circle5851" class="cls-2" cx="5.64" cy="3.96" r="0.12"/><circle id="circle5853-2" data-name="circle5853" class="cls-2" cx="3.47" cy="7.28" r="0.12"/><circle id="circle5855-2" data-name="circle5855" class="cls-2" cx="5.7" cy="7.73" r="0.12"/><circle id="circle5857-2" data-name="circle5857" class="cls-2" cx="7.64" cy="7.16" r="0.12"/><circle id="circle5859-2" data-name="circle5859" class="cls-2" cx="5.6" cy="5.85" r="0.12"/><circle id="circle5861-2" data-name="circle5861" class="cls-2" cx="7.13" cy="5.85" r="0.12"/><circle id="circle5863-2" data-name="circle5863" class="cls-2" cx="7.45" cy="4.47" r="0.12"/><circle id="circle5865-2" data-name="circle5865" class="cls-2" cx="6.26" cy="4.9" r="0.12"/><circle id="circle5867-2" data-name="circle5867" class="cls-2" cx="6.62" cy="3.24" r="0.12"/><circle id="circle5869-2" data-name="circle5869" class="cls-2" cx="6.38" cy="2.06" r="0.12"/><circle id="circle5871-2" data-name="circle5871" class="cls-2" cx="7.47" cy="1.54" r="0.12"/><circle id="circle5873-2" data-name="circle5873" class="cls-2" cx="6.56" cy="0.55" r="0.12"/><circle id="circle5875-2" data-name="circle5875" class="cls-2" cx="7.75" cy="0.42" r="0.12"/><circle id="circle5877-2" data-name="circle5877" class="cls-2" cx="7.75" cy="3.05" r="0.12"/><circle id="circle5879-2" data-name="circle5879" class="cls-2" cx="2.7" cy="2.96" r="0.12"/><circle id="circle5881-2" data-name="circle5881" class="cls-2" cx="2.3" cy="1.44" r="0.12"/><circle id="circle5883-2" data-name="circle5883" class="cls-2" cx="3.67" cy="1.02" r="0.12"/><circle id="circle5885-2" data-name="circle5885" class="cls-2" cx="2.54" cy="0.26" r="0.12"/><circle id="circle5887-2" data-name="circle5887" class="cls-2" cx="4.59" cy="2.15" r="0.12"/><circle id="circle5889-2" data-name="circle5889" class="cls-2" cx="5.37" cy="2.79" r="0.12"/><circle id="circle5891-2" data-name="circle5891" class="cls-2" cx="4.58" cy="0.26" r="0.12"/><circle id="circle5893-2" data-name="circle5893" class="cls-2" cx="5.23" cy="1.3" r="0.12"/><circle id="circle5895-2" data-name="circle5895" class="cls-2" cx="3.5" cy="2.28" r="0.12"/><circle id="circle5897-2" data-name="circle5897" class="cls-2" cx="0.5" cy="2.2" r="0.12"/><circle id="circle5899-2" data-name="circle5899" class="cls-2" cx="0.66" cy="3.46" r="0.12"/><circle id="circle5901-2" data-name="circle5901" class="cls-2" cx="1.01" cy="1.18" r="0.12"/><circle id="circle5903-2" data-name="circle5903" class="cls-2" cx="1.59" cy="2.5" r="0.12"/><circle id="circle5905-2" data-name="circle5905" class="cls-2" cx="0.3" cy="5.46" r="0.12"/><circle id="circle5907-2" data-name="circle5907" class="cls-2" cx="0.93" cy="6.67" r="0.12"/><circle id="circle5909-2" data-name="circle5909" class="cls-2" cx="0.92" cy="7.93" r="0.12"/><circle id="circle5911-2" data-name="circle5911" class="cls-2" cx="0.92" cy="-0.07" r="0.12"/><circle id="circle5913-2" data-name="circle5913" class="cls-2" cx="1.04" cy="4.44" r="0.12"/><circle id="circle5915-2" data-name="circle5915" class="cls-2" cx="2.44" cy="4.99" r="0.12"/></pattern><linearGradient id="linear-gradient-4" x1="380.25" y1="123.57" x2="373.49" y2="221.2" gradientTransform="translate(-171.09 178.9) rotate(-5.67)" xlink:href="#linear-gradient"/><linearGradient id="linear-gradient-5" x1="444.12" y1="128" x2="437.35" y2="225.63" gradientTransform="translate(-171.09 178.9) rotate(-5.67)" xlink:href="#linear-gradient"/><pattern id="Polkadots-med-7" data-name="Polkadots-med" width="8" height="8" patternTransform="matrix(2.76, -0.27, -0.27, -2.76, -81.97, 797.58)" patternUnits="userSpaceOnUse" viewBox="0 0 8 8"><rect class="cls-1" width="8" height="8"/><circle id="circle5829-4" data-name="circle5829" class="cls-2" cx="2.05" cy="7.35" r="0.12"/><circle id="circle5831-4" data-name="circle5831" class="cls-2" cx="2.44" cy="6.14" r="0.12"/><circle id="circle5833-4" data-name="circle5833" class="cls-2" cx="3.53" cy="6.07" r="0.12"/><circle id="circle5835-4" data-name="circle5835" class="cls-2" cx="1.48" cy="5.58" r="0.12"/><circle id="circle5837-4" data-name="circle5837" class="cls-2" cx="4.86" cy="6.91" r="0.12"/><circle id="circle5839-4" data-name="circle5839" class="cls-2" cx="4.66" cy="4.47" r="0.12"/><circle id="circle5841-4" data-name="circle5841" class="cls-2" cx="3.44" cy="4.76" r="0.12"/><circle id="circle5843-4" data-name="circle5843" class="cls-2" cx="4.43" cy="5.56" r="0.12"/><circle id="circle5845-4" data-name="circle5845" class="cls-2" cx="3.83" cy="3.58" r="0.12"/><circle id="circle5847-4" data-name="circle5847" class="cls-2" cx="2.13" cy="3.85" r="0.12"/><circle id="circle5849-4" data-name="circle5849" class="cls-2" cx="6.37" cy="6.84" r="0.12"/><circle id="circle5851-4" data-name="circle5851" class="cls-2" cx="5.64" cy="3.96" r="0.12"/><circle id="circle5853-4" data-name="circle5853" class="cls-2" cx="3.47" cy="7.28" r="0.12"/><circle id="circle5855-4" data-name="circle5855" class="cls-2" cx="5.7" cy="7.73" r="0.12"/><circle id="circle5857-4" data-name="circle5857" class="cls-2" cx="7.64" cy="7.16" r="0.12"/><circle id="circle5859-4" data-name="circle5859" class="cls-2" cx="5.6" cy="5.85" r="0.12"/><circle id="circle5861-4" data-name="circle5861" class="cls-2" cx="7.13" cy="5.85" r="0.12"/><circle id="circle5863-4" data-name="circle5863" class="cls-2" cx="7.45" cy="4.47" r="0.12"/><circle id="circle5865-4" data-name="circle5865" class="cls-2" cx="6.26" cy="4.9" r="0.12"/><circle id="circle5867-4" data-name="circle5867" class="cls-2" cx="6.62" cy="3.24" r="0.12"/><circle id="circle5869-4" data-name="circle5869" class="cls-2" cx="6.38" cy="2.06" r="0.12"/><circle id="circle5871-4" data-name="circle5871" class="cls-2" cx="7.47" cy="1.54" r="0.12"/><circle id="circle5873-4" data-name="circle5873" class="cls-2" cx="6.56" cy="0.55" r="0.12"/><circle id="circle5875-4" data-name="circle5875" class="cls-2" cx="7.75" cy="0.42" r="0.12"/><circle id="circle5877-4" data-name="circle5877" class="cls-2" cx="7.75" cy="3.05" r="0.12"/><circle id="circle5879-4" data-name="circle5879" class="cls-2" cx="2.7" cy="2.96" r="0.12"/><circle id="circle5881-4" data-name="circle5881" class="cls-2" cx="2.3" cy="1.44" r="0.12"/><circle id="circle5883-4" data-name="circle5883" class="cls-2" cx="3.67" cy="1.02" r="0.12"/><circle id="circle5885-4" data-name="circle5885" class="cls-2" cx="2.54" cy="0.26" r="0.12"/><circle id="circle5887-4" data-name="circle5887" class="cls-2" cx="4.59" cy="2.15" r="0.12"/><circle id="circle5889-4" data-name="circle5889" class="cls-2" cx="5.37" cy="2.79" r="0.12"/><circle id="circle5891-4" data-name="circle5891" class="cls-2" cx="4.58" cy="0.26" r="0.12"/><circle id="circle5893-4" data-name="circle5893" class="cls-2" cx="5.23" cy="1.3" r="0.12"/><circle id="circle5895-4" data-name="circle5895" class="cls-2" cx="3.5" cy="2.28" r="0.12"/><circle id="circle5897-4" data-name="circle5897" class="cls-2" cx="0.5" cy="2.2" r="0.12"/><circle id="circle5899-4" data-name="circle5899" class="cls-2" cx="0.66" cy="3.46" r="0.12"/><circle id="circle5901-4" data-name="circle5901" class="cls-2" cx="1.01" cy="1.18" r="0.12"/><circle id="circle5903-4" data-name="circle5903" class="cls-2" cx="1.59" cy="2.5" r="0.12"/><circle id="circle5905-4" data-name="circle5905" class="cls-2" cx="0.3" cy="5.46" r="0.12"/><circle id="circle5907-4" data-name="circle5907" class="cls-2" cx="0.93" cy="6.67" r="0.12"/><circle id="circle5909-4" data-name="circle5909" class="cls-2" cx="0.92" cy="7.93" r="0.12"/><circle id="circle5911-4" data-name="circle5911" class="cls-2" cx="0.92" cy="-0.07" r="0.12"/><circle id="circle5913-4" data-name="circle5913" class="cls-2" cx="1.04" cy="4.44" r="0.12"/><circle id="circle5915-4" data-name="circle5915" class="cls-2" cx="2.44" cy="4.99" r="0.12"/></pattern></defs><title>bword</title><g id="layer1"><g id="g4796"><path id="path4275" class="cls-3" d="M325.76,143l-33.43,1.19L276.8,206.32l-1.19-60.89L245.76,149l-4.78,31-6-33.43-37,4.78-8.36,53.73-10.75-3.58s17.91-13.13,8.36-33.43-58.51,7.16-58.51,7.16l-6,130.15s19.1,15.52,53.73-25.07v20.3l23.88-2.39,6-49,14.33-3.58v58.51L244.57,303l9.55-50.15,2.39,35.82,22.69-1.19,13.13-35.82-2.39,46.57h26.27l17.91-57.31,19.1-1.19,11.94-20.3-21.49-8.36,11.94-33.43,31-4.78,11.94-28.66-62.09,2.39-17.91,56.12ZM217.1,177.66l1.19,40.6-9.55,1.19Zm-55.47,7.63c7.93.1-10.2,17.44-10.2,17.44V188.41C156.58,186.17,159.8,185.28,161.63,185.3Zm15.78,47a28,28,0,0,1,3.87.26c0,11.94-33.43,41.79-33.43,41.79L149,239.75C161.36,233.19,172,232.26,177.41,232.33Z"/><path id="path4283" class="cls-4" d="M412.92,145.43l26.27,6-45.37,81.19s-3.58,9.55-17.91,8.36,0-31,0-31Z"/><ellipse id="ellipse4285" class="cls-5" cx="360.39" cy="267.22" rx="17.91" ry="20.3"/></g><g id="g4749"><path id="path4751" class="cls-6" d="M129.38,174.48l-6,130.15s19.1,15.52,53.73-25.07v20.3L201,297.47l6-49,14.33-3.58v58.51l23.88-1.19,9.55-50.15,2.39,35.82,22.69-1.19L293,250.9l-2.39,46.57h26.27l17.91-57.31,19.1-1.19,11.94-20.3L344.3,210.3l11.94-33.43,31-4.78,11.94-28.66-62.09,2.39-17.91,56.12,7.16-59.7L293,143.44l-15.52,62.09-1.19-60.89-29.85,3.58-4.78,31-6-33.43-37,4.78-8.36,53.73-10.75-3.58s17.91-13.13,8.36-33.43-58.51,7.16-58.51,7.16Z"/><path id="path4753" class="cls-6" d="M152.07,187.62v14.33S179.53,175.68,152.07,187.62Z"/><path id="path4755" class="cls-6" d="M149.68,239l-1.19,34.63s33.43-29.85,33.43-41.79C181.92,231.79,167.59,229.41,149.68,239Z"/><path id="path4757" class="cls-6" d="M209.38,218.66l8.36-41.79,1.19,40.6Z"/><path id="path4759" class="cls-6" d="M413.56,144.63l26.27,6-45.37,81.19s-3.58,9.55-17.91,8.36,0-31,0-31Z"/><ellipse id="ellipse4761" class="cls-6" cx="361.02" cy="266.42" rx="17.91" ry="20.3"/></g><g id="g4830"><path id="path4832" class="cls-7" d="M325.6,143.51l-33.43,1.19L276.64,206.8l-1.19-60.89-29.85,3.58-4.78,31-6-33.43-37,4.78-8.36,53.73L178.73,202s17.91-13.13,8.36-33.43-58.51,7.16-58.51,7.16l-6,130.15s19.1,15.52,53.73-25.07v20.3l23.88-2.39,6-49,14.33-3.58v58.51l23.88-1.19L254,253.36l2.39,35.82L279,288l13.13-35.82-2.39,46.57H316L334,241.42l19.1-1.19L365,219.93l-21.49-8.36,11.94-33.43,31-4.78,11.94-28.66-62.09,2.39-17.91,56.12ZM216.94,178.14l1.19,40.6-9.55,1.19Zm-55.47,7.63c7.93.1-10.2,17.44-10.2,17.44V188.89C156.42,186.65,159.64,185.75,161.47,185.77Zm15.78,47a28,28,0,0,1,3.87.26c0,11.94-33.43,41.79-33.43,41.79l1.19-34.63C161.2,233.66,171.82,232.74,177.25,232.8Z"/><path id="path4834" class="cls-8" d="M412.76,145.9l26.27,6-45.37,81.19s-3.58,9.55-17.91,8.36,0-31,0-31Z"/><ellipse id="ellipse4836" class="cls-8" cx="360.23" cy="267.69" rx="17.91" ry="20.3"/></g><path class="cls-9" d="M239,309.1q-8.1.8-11.71,5.88t-2.81,13.25l2.68,27c.08.78.19,1.52.33,2.24l-17.69,4.29,8-21.85q2.32-6.05,3.34-9.27a34.94,34.94,0,0,0,1.41-7,22.7,22.7,0,0,0-.56-7.7q-2.1-8.67-8.06-12.27t-15.06-1.4q-9.87,2.39-13.19,9.32t-1,16.62l.89,3.66,13.78-3.34-.82-3.4a16,16,0,0,1-.4-7.24,4.75,4.75,0,0,1,3.9-3.6,4,4,0,0,1,3.64.7,7.28,7.28,0,0,1,2.21,4.1,16.42,16.42,0,0,1,.13,7.22,67.15,67.15,0,0,1-2.8,9.28l-.65,1.78L194.2,366.7l2.43,10,36-8.72-.22-.93.16.16q4.65,4.22,12.53,3.44t11.49-5.86q3.77-5.09,3-12.82l-2.68-27q-.81-8.17-5.32-12.44T239,309.1ZM247,353a13.15,13.15,0,0,1-.25,4.56,2.86,2.86,0,0,1-2.79,2.21q-3.68.37-4.32-6L237,327.27a16.27,16.27,0,0,1,.14-5,3.4,3.4,0,0,1,6.11-.57,16.39,16.39,0,0,1,1.11,4.83Z"/><path class="cls-10" d="M313,344.89a21.64,21.64,0,0,0-3.06-8.55,10.92,10.92,0,0,0-6-4.73,12.18,12.18,0,0,0,3.41-5.87,20.86,20.86,0,0,0,.27-8.76q-1.08-7.09-5.61-10.51t-11.83-2.31q-7.31,1.11-10.67,5.78c-.15.21-.27.43-.41.64l.7-8.06-9.65-.84q-2.17,1.89-11.41,5.69l-.8,9.13a22,22,0,0,1,2.15-.78l1.91-.58q3.59-1.17,4.44-1.54l-4.14,47.51,12.3,1.07,3.27-37.5a16.63,16.63,0,0,0,2.31,5.12,14.52,14.52,0,0,0,5,4.65,11,11,0,0,0-4.33,6.16,20,20,0,0,0-.43,8.71q1.3,8.55,5.88,12.83t13.13,3q8.48-1.29,11.64-6.6T313,344.89Zm-24-29.44a3.13,3.13,0,0,1,2.55-2.15,3,3,0,0,1,3,1.34,10.16,10.16,0,0,1,1.67,4.61q1.35,8.85-2.31,9.4t-5.16-8.34A9.61,9.61,0,0,1,289,315.45Zm12.3,35.08a8.48,8.48,0,0,1-.57,3.6,3.13,3.13,0,0,1-2.65,2,3.29,3.29,0,0,1-3.74-2,20.36,20.36,0,0,1-1.74-6,22.72,22.72,0,0,1-.23-6.89A3.62,3.62,0,0,1,299,340a17.45,17.45,0,0,1,1.76,5.87Q301.18,348.64,301.29,350.53Z"/><path class="cls-11" d="M239,309.1q-8.1.8-11.71,5.88t-2.81,13.25l2.68,27c.08.78.19,1.52.33,2.24l-17.69,4.29,8-21.85q2.32-6.05,3.34-9.27a34.94,34.94,0,0,0,1.41-7,22.7,22.7,0,0,0-.56-7.7q-2.1-8.67-8.06-12.27t-15.06-1.4q-9.87,2.39-13.19,9.32t-1,16.62l.89,3.66,13.78-3.34-.82-3.4a16,16,0,0,1-.4-7.24,4.75,4.75,0,0,1,3.9-3.6,4,4,0,0,1,3.64.7,7.28,7.28,0,0,1,2.21,4.1,16.42,16.42,0,0,1,.13,7.22,67.15,67.15,0,0,1-2.8,9.28l-.65,1.78L194.2,366.7l2.43,10,36-8.72-.22-.93.16.16q4.65,4.22,12.53,3.44t11.49-5.86q3.77-5.09,3-12.82l-2.68-27q-.81-8.17-5.32-12.44T239,309.1ZM247,353a13.15,13.15,0,0,1-.25,4.56,2.86,2.86,0,0,1-2.79,2.21q-3.68.37-4.32-6L237,327.27a16.27,16.27,0,0,1,.14-5,3.4,3.4,0,0,1,6.11-.57,16.39,16.39,0,0,1,1.11,4.83Z"/><path class="cls-11" d="M313,344.89a21.64,21.64,0,0,0-3.06-8.55,10.92,10.92,0,0,0-6-4.73,12.18,12.18,0,0,0,3.41-5.87,20.86,20.86,0,0,0,.27-8.76q-1.08-7.09-5.61-10.51t-11.83-2.31q-7.31,1.11-10.67,5.78c-.15.21-.27.43-.41.64l.7-8.06-9.65-.84q-2.17,1.89-11.41,5.69l-.8,9.13a22,22,0,0,1,2.15-.78l1.91-.58q3.59-1.17,4.44-1.54l-4.14,47.51,12.3,1.07,3.27-37.5a16.63,16.63,0,0,0,2.31,5.12,14.52,14.52,0,0,0,5,4.65,11,11,0,0,0-4.33,6.16,20,20,0,0,0-.43,8.71q1.3,8.55,5.88,12.83t13.13,3q8.48-1.29,11.64-6.6T313,344.89Zm-24-29.44a3.13,3.13,0,0,1,2.55-2.15,3,3,0,0,1,3,1.34,10.16,10.16,0,0,1,1.67,4.61q1.35,8.85-2.31,9.4t-5.16-8.34A9.61,9.61,0,0,1,289,315.45Zm12.3,35.08a8.48,8.48,0,0,1-.57,3.6,3.13,3.13,0,0,1-2.65,2,3.29,3.29,0,0,1-3.74-2,20.36,20.36,0,0,1-1.74-6,22.72,22.72,0,0,1-.23-6.89A3.62,3.62,0,0,1,299,340a17.45,17.45,0,0,1,1.76,5.87Q301.18,348.64,301.29,350.53Z"/></g></svg>