<svg id="Layer_1" data-name="Layer 1" xmlns="http://www.w3.org/2000/svg" xmlns:xlink="http://www.w3.org/1999/xlink" viewBox="0 0 100.02 100.05"><defs><style>.cls-1{fill:url(#Orange_Yellow);}.cls-2{fill:#211C5A;}</style><linearGradient id="Orange_Yellow" x1="71.64" y1="89.59" x2="31.14" y2="17.09" gradientUnits="userSpaceOnUse"><stop offset="0" stop-color="#fff33b"/><stop offset="0.04" stop-color="#fee72e"/><stop offset="0.12" stop-color="#fed51b"/><stop offset="0.2" stop-color="#fdca10"/><stop offset="0.28" stop-color="#fdc70c"/><stop offset="0.67" stop-color="#f3903f"/><stop offset="0.89" stop-color="#ed683c"/><stop offset="1" stop-color="#e93e3a"/></linearGradient></defs><title>fbicon</title><circle class="cls-1" cx="49.34" cy="49.68" r="44.66"/><g id="Dtzy8c"><path class="cls-2" d="M0,54V46.24c.18-1.32.35-2.64.55-4a50.11,50.11,0,0,1,38.62-41C41.44.79,43.77.51,46.08.14h7.81c.29.05.57.13.86.16A48.54,48.54,0,0,1,84.61,14C96,25.1,101.09,38.7,99.82,54.55A47.53,47.53,0,0,1,85.94,84.93c-12,12.19-26.74,17.1-43.7,14.66A49.88,49.88,0,0,1,1.12,61C.63,58.69.36,56.36,0,54Zm53.89,9.32q0-5.81,0-11.62c0-1.64,0-1.65,1.6-1.65s3.32,0,5,0c.62,0,1-.21,1-.88.19-2.46.39-4.93.64-7.39.08-.78-.17-1-.95-1-2.08,0-4.16,0-6.25,0-.75,0-1.06-.3-1-1,0-1.43,0-2.86,0-4.29a2.42,2.42,0,0,1,2.73-2.71q2.2,0,4.39,0c.75,0,1.05-.3,1-1q0-3.42,0-6.83c0-.79-.29-1.12-1.09-1.11-2.77,0-5.53,0-8.3.06a9.87,9.87,0,0,0-5.58,1.82c-2.77,2-3.85,4.91-4.08,8.19-.09,1.23,0,2.47,0,3.71,0,3.26,0,3.26-3.21,3.26-.33,0-.65,0-1,0-.73,0-1.07.23-1.07,1,0,2.44,0,4.88,0,7.32,0,.72.32,1,1,1,.88,0,1.76,0,2.64,0,1.6,0,1.61,0,1.61,1.65q0,11.67,0,23.33c0,1.36.07,1.42,1.44,1.43h8.1c1.25,0,1.34-.09,1.35-1.33Q53.88,69.27,53.87,63.37Z" transform="translate(0.01 -0.14)"/></g></svg>