<svg id="Layer_1" data-name="Layer 1" xmlns="http://www.w3.org/2000/svg" viewBox="0 0 100.06 100.05"><defs><style>.cls-1{fill:#fdd033;}.cls-2{fill:#f04830;}</style></defs><title>igicon</title><circle class="cls-1" cx="49.23" cy="49.69" r="44.66"/><g id="HhsxWt"><path class="cls-2" d="M100.15,46.82v6.64c-.15,1.19-.27,2.38-.45,3.56A49.18,49.18,0,0,1,81.11,89.33,48.36,48.36,0,0,1,43.35,99.65,48.31,48.31,0,0,1,11,81.15,48.65,48.65,0,0,1,.62,43.32,48.07,48.07,0,0,1,12.56,17.21a49.23,49.23,0,0,1,30-16.5C44,.49,45.42.33,46.83.14h6.64c1.18.15,2.37.28,3.55.45a50.18,50.18,0,0,1,42.55,42C99.79,44,99.94,45.41,100.15,46.82Zm-50,31.67c6.12,0,12.24.11,18.35,0,5.19-.12,9.74-4.8,10-10q0-1,.05-2c0-11.52,0-23-.08-34.56-.06-5.29-4.78-9.84-10.07-10.1-.65,0-1.3,0-2,0-11.52,0-23,0-34.56.08a10.55,10.55,0,0,0-10,10c-.14,7.55-.07,15.1-.07,22.65,0,4.62-.07,9.24.07,13.86a10.63,10.63,0,0,0,10,10.06C37.94,78.6,44,78.49,50.15,78.49Z" transform="translate(-0.1 -0.14)"/><path class="cls-2" d="M27.3,44.33h8.33C33.34,52.06,35,58.56,41.8,63.17A15.18,15.18,0,0,0,59,62.86c5.91-4.21,7.61-9.92,5.61-18.51h8.3c0,.25.07.53.07.81v22c0,3-1.49,5.06-4.14,5.73a8,8,0,0,1-1.93.17H33.29c-3.12,0-5.14-1.43-5.85-4.12a6.51,6.51,0,0,1-.18-1.64V45A3.67,3.67,0,0,1,27.3,44.33Z" transform="translate(-0.1 -0.14)"/><path class="cls-2" d="M60.15,50.17a10,10,0,1,1-10-10A10,10,0,0,1,60.15,50.17Z" transform="translate(-0.1 -0.14)"/><path class="cls-2" d="M62.41,37.84v-9.5h9.53v9.5Z" transform="translate(-0.1 -0.14)"/></g></svg>