<svg id="Layer_1" data-name="Layer 1" xmlns="http://www.w3.org/2000/svg" viewBox="0 0 293.8 109.71"><defs><style>.cls-1{fill:#fff;}</style></defs><title>mobilelogo</title><g id="layer1"><polygon class="cls-1" points="22.7 64.69 0.85 70.97 23.42 49.18 23.57 49.03 22.85 64.65 22.7 64.69"/><path class="cls-1" d="M11.93,77.89l-.12-.21L34.75,55.52l-.74,16-.24.07ZM34.47,56.14,12.35,77.5l21.36-6.13h0l.06,0Z" transform="translate(-11.04 -6.8)"/><path class="cls-1" d="M42.39,54.66a27,27,0,0,1-2.08,2.25V53.39l.16-.07v-.13c4-1.75,3.26-.17,2,1.39Z" transform="translate(-11.04 -6.8)"/><path class="cls-1" d="M40.18,57.21V53.3l.08,0,.08,0v-.13l.08,0c2.38-1,2.9-.82,3.09-.57s0,1-1,2.16l-.07.08A27.32,27.32,0,0,1,40.4,57Zm.25-3.74v3.14a25.72,25.72,0,0,0,1.85-2l.07-.08c1.1-1.35,1-1.74,1-1.85s-.55-.31-2.71.62v.13l-.08,0Z" transform="translate(-11.04 -6.8)"/><path class="cls-1" d="M39.88,65.84a13.6,13.6,0,0,1,7.94-1.77c0,1-.89,2.41-2.08,3.9l-.17.22a62.75,62.75,0,0,1-6.14,6.37L39.72,66l.15-.08Z" transform="translate(-11.04 -6.8)"/><path class="cls-1" d="M39.29,74.86,39.6,66l.15-.08v-.11l.07,0a13.86,13.86,0,0,1,8-1.78l.11,0v.11c0,.89-.71,2.23-2.11,4l-.17.22a63.36,63.36,0,0,1-6.16,6.39Zm.56-8.75-.28,8.15a61.44,61.44,0,0,0,5.9-6.15l.17-.22c1.3-1.64,2-2.89,2-3.71A13.86,13.86,0,0,0,40,65.92V66Z" transform="translate(-11.04 -6.8)"/><polygon class="cls-1" points="45.9 53.75 45.74 53.77 45.74 53.94 43.39 54.24 45.45 43.94 45.47 44.45 45.61 43.75 45.9 53.75"/><path class="cls-1" d="M54.27,61.18l2.09-10.47h.11l0-.2.25,0,.3,10.12-.16,0v.17Zm2.24-9.92-1.93,9.62,2.06-.26v-.17l.16,0-.27-9.17Z" transform="translate(-11.04 -6.8)"/><path class="cls-1" d="M11.07,48.61l32.15-8L24.94,22.94l31.85,9.14-7-24.43,23,23.84L78.93,6.83,87,39,104.6,20.7,98.37,42.42l-.05.19L86,43.09,81.65,56.72l.06-.48-.21.67,1.77-14.71-8.13.29L71.35,57.6v-.4l-.15.6-.29-15-7.22.87-1.15,7.47-.07-.38-.09.58L60.9,43.09l-9,1.16-2,13.06-.12,0,0,.24-2.65-.88.22-.17-.06,0a7.1,7.1,0,0,0,1.15-1.14l0,0a6.34,6.34,0,0,0,.72-6.87c-2.2-4.67-12.87.93-14.26,1.68l-.2,4.41-.15,0Z" transform="translate(-11.04 -6.8)"/><path class="cls-1" d="M71.32,57.83l-.25,0-.29-14.86-7,.84-1.13,7.37h-.13l0,.2h-.25l-1.45-8.12L52,44.36,50,57.48l-.12,0,0,.24-3-1,.2-.15,0,0-.07,0,.2-.14a7.06,7.06,0,0,0,1.13-1.12l0,0A6.2,6.2,0,0,0,49,48.44a2.86,2.86,0,0,0-1.78-1.53C43.51,45.69,36.11,49.55,35,50.15l-.21,4.5-.3-.07L11,48.73v-.25l31.93-8L24.85,23l.12-.21L56.6,31.89,49.65,7.69l.21-.12L72.73,31.24,78.81,6.8h.25l8,31.93,17.49-18.12.21.12-6.31,22h-.09l-12.23.47L81.77,56.76l-.09,0-.07.21-.25-.05,1.75-14.56-7.88.28-3.75,15h-.11Zm-24-1.26,2.28.76,0-.24.12,0,2-13L61,42.95l1.39,7.78h.07l1.1-7.18,7.46-.9.28,14.53h0L75,42.37l8.37-.3,0,.15L81.72,56.08,85.9,43l12.31-.47,6.12-21.34L86.88,39.24,86.83,39,78.93,7.36,72.86,31.74l-.16-.17L50,8.11,57,32.26,25.39,23.21,43.48,40.66l-.22.06L11.6,48.61l23,5.71.2-4.33.06,0c1.42-.77,8.68-4.54,12.51-3.29a3.11,3.11,0,0,1,1.93,1.66,6.45,6.45,0,0,1-.73,7l0,0a7.74,7.74,0,0,1-1,1l.05,0-.17.14Z" transform="translate(-11.04 -6.8)"/><path class="cls-1" d="M88.56,82.71l32.15-8L96.05,68.55l23.84-23-11.14,3.2h0l-.06,0L100,64.27a2.43,2.43,0,0,1-.31.53,4.41,4.41,0,0,1-3.95,1.33c-3.53-.29,0-7.65,0-7.65l4.14-7.21-.05,0-4.39,1.26.77-2.67.05-.18-5.52.85-.07.18h-.09L87.67,59,93,61l-2.83,4.81-4.66.29-.06.19h-.1L81,80.25H74.59l.59-11.47-.17.47V69l-3.16,8.63-5.5.29-.59-8.82-.13.66,0-.46L63.29,81.44l-5.76.29V67.31L54,68.19l0,.16-.14,0L52.39,80.27l-5.75.57v-5C38.11,85.84,33.41,82,33.41,82l.06-1.32-.17.61-6.11,21.3L44.83,84.32l8,32.15L59,91.81l23,23.84L75,91.22l31.85,9.13Zm3.38-5.1c-2.44,0-4.41-2.24-4.41-5a5.38,5.38,0,0,1,1.08-3.27,4.16,4.16,0,0,1,3.18-1.54,4.73,4.73,0,0,1,4.41,5,5.38,5.38,0,0,1-1.08,3.27A4.17,4.17,0,0,1,91.94,77.61Z" transform="translate(-11.04 -6.8)"/><path class="cls-1" d="M52.72,116.5l-8-31.93L27.27,102.69l-.21-.12,6.28-21.91.25,0L33.54,82c.53.36,5.14,3,13-6.2l.22-.26V80.7l5.51-.55,1.45-11.87.14,0,0-.16,3.77-.94V81.59l5.53-.27,2.3-12.07h.12l0-.2.25,0,.58,8.7,5.29-.28,3.14-8.56.08,0,.08-.21.25.05-.58,11.34h6.15l4.35-13.92h.1l.06-.19,4.68-.29,2.72-4.62-5.27-2,3-8.43h.09l.06-.18,5.79-.89-.81,2.82,4.52-1.3-4.3,7.48s-2.34,4.92-1.28,6.77a1.38,1.38,0,0,0,1.18.69,4.28,4.28,0,0,0,3.84-1.29,2.31,2.31,0,0,0,.28-.49l8.71-15.58.13,0,11.12-3.19.12.21L96.31,68.49l24.44,6.09v.25l-31.93,8,18.12,17.49-.12.21L75.18,91.41l6.95,24.21-.21.12L59.05,92.07,53,116.5ZM44.9,84.07l.06.22,7.89,31.66,6.07-24.39.16.17,22.66,23.47L74.81,91l31.58,9.06L88.3,82.64l.22-.06,31.66-7.89L95.8,68.62l3-2.93a5.16,5.16,0,0,1-3.08.57,1.64,1.64,0,0,1-1.38-.81c-1.13-2,1.17-6.81,1.27-7l4-6.95-4.36,1.25.83-2.88-5.24.81-.06.18H90.7l-2.87,8L93.15,61l-2.94,5-4.64.29-.06.19h-.1L81.06,80.38H74.45l.57-11-3.07,8.39-5.71.3-.55-8.28h0L63.39,81.56l-6,.3V67.47l-3.29.82,0,.16-.14,0L52.51,80.38l-6,.6v-4.8c-8.37,9.65-13,6.09-13.19,5.93l0,0v-.3l-5.84,20.37Zm55.23-19.73a1.48,1.48,0,0,1-.09.19L119.43,45.8l-10.65,3.06-8.65,15.47Zm-8.19,13.4c-2.5,0-4.54-2.3-4.54-5.13a5.53,5.53,0,0,1,1.1-3.35,4.27,4.27,0,0,1,3.28-1.59c2.5,0,4.54,2.3,4.54,5.13a5.53,5.53,0,0,1-1.11,3.35A4.27,4.27,0,0,1,91.94,77.73Zm-.16-9.81a4,4,0,0,0-3.08,1.49,5.26,5.26,0,0,0-1,3.19c0,2.69,1.92,4.87,4.29,4.87A4,4,0,0,0,95,76a5.27,5.27,0,0,0,1.05-3.19C96.07,70.11,94.15,67.93,91.78,67.93Z" transform="translate(-11.04 -6.8)"/><g id="g4796"><g id="path4275"><path class="cls-1" d="M98.31,42.61l-2,7.08-5.52.85-.07.18,5.53-.85,2-.31.08-.18,2.87-6.88ZM85.47,66.13l-.06.19L90,66l.11-.19Zm.43-23L81.7,56.24l-.06.48L86,43.09ZM74.59,80.25l.59-11.47-.17.47-.57,11.2H80.9l.06-.2ZM75,42.5,71.34,57.2v.4l3.78-15.1ZM66.35,77.9l-.59-8.82-.13.66.56,8.36,5.59-.29.07-.19Zm-2.8-34.22-1.09,7.07.07.38,1.15-7.47Zm-6,38V67.31L54,68.19l0,.16,3.39-.85V81.92l5.88-.29,0-.19Zm-.88-31.18-.14.7.27,9.32.16,0Zm-10,30.3v-5C38.11,85.84,33.41,82,33.41,82l.06-1.32,2.85-9.94-2.43.7.72-15.62,1.12-1.08-1.06-.26.2-4.41-.15.08-.2,4.3L34.45,56l-.71,15.51-.45,9.81,0,.91S38,86,46.49,76v5l5.88-.59,0-.18Zm5.14-36.57-2,13,.12,0,2-13.06Zm-4,19.81a13.6,13.6,0,0,0-7.94,1.77V66a14.61,14.61,0,0,1,6.84-1.75,6.83,6.83,0,0,1,1,.07c0,.92-.81,2.28-1.92,3.71C46.93,66.48,47.82,65,47.82,64.07Zm-.59-7.65.06,0a7.93,7.93,0,0,0,1.09-1.16A7.1,7.1,0,0,1,47.23,56.43Zm-6.76-3.23v.13a6.88,6.88,0,0,1,2.35-.7c.92,0,.42,1-.37,2C43.73,53,44.48,51.44,40.47,53.19Z" transform="translate(-11.04 -6.8)"/></g><path class="cls-1" d="M111.2,44.27l-2.51,4.48-8.79,2.52-4.14,7.21s-3.53,7.35,0,7.65a4.41,4.41,0,0,0,3.95-1.33,4.3,4.3,0,0,1-4.11,1.53c-3.53-.29,0-7.65,0-7.65l4.24-7.39,4.88-8.49h0Z" transform="translate(-11.04 -6.8)"/><path class="cls-1" d="M95.12,76.08a4.2,4.2,0,0,1-3.33,1.73c-2.44,0-4.41-2.24-4.41-5a5.34,5.34,0,0,1,1.23-3.46,5.38,5.38,0,0,0-1.08,3.27c0,2.76,2,5,4.41,5A4.17,4.17,0,0,0,95.12,76.08Z" transform="translate(-11.04 -6.8)"/></g><g id="g4749"><polygon class="cls-1" points="24.69 47.95 23.57 49.03 23.63 47.69 24.69 47.95"/><polygon class="cls-1" points="22.85 64.65 25.28 63.95 22.43 73.9 22.85 64.65"/><path class="cls-1" d="M42.39,54.66a27,27,0,0,1-2.08,2.25V53.39l.16-.07v-.13c4-1.75,3.26-.17,2,1.39Z" transform="translate(-11.04 -6.8)"/><path class="cls-1" d="M47.82,64.07c0,1-.89,2.41-2.08,3.9l-.17.22a62.75,62.75,0,0,1-6.14,6.37L39.72,66l.15-.08v-.11A13.6,13.6,0,0,1,47.82,64.07Z" transform="translate(-11.04 -6.8)"/><path class="cls-1" d="M49.29,48.19a6.37,6.37,0,0,1-.88,7.06,6.34,6.34,0,0,0,.72-6.87c-2.2-4.67-12.87.93-14.26,1.68V50S46.94,43.19,49.29,48.19Z" transform="translate(-11.04 -6.8)"/><path class="cls-1" d="M47.29,56.45l2.47.82,0,.24-2.65-.88Z" transform="translate(-11.04 -6.8)"/><polygon class="cls-1" points="42.8 61.59 42.94 61.56 41.49 73.46 41.35 73.47 42.8 61.59"/><polygon class="cls-1" points="45.9 53.75 45.74 53.77 45.74 53.94 43.39 54.24 45.45 43.94 45.47 44.45 45.61 43.75 45.9 53.75"/><polygon class="cls-1" points="50.02 36.1 51.42 43.95 51.33 44.53 49.86 36.29 40.87 37.45 40.9 37.27 50.02 36.1"/><polygon class="cls-1" points="54.57 62.47 54.6 62.94 52.37 74.63 52.25 74.64 54.57 62.47"/><polygon class="cls-1" points="60.02 35.8 60.31 50.4 60.16 51 59.86 36 52.64 36.87 52.67 36.69 60.02 35.8"/><polygon class="cls-1" points="60.82 70.81 63.98 62.18 63.97 62.45 60.9 70.81 60.82 70.81"/><polygon class="cls-1" points="72.22 35.41 64.09 35.7 64.14 35.51 72.37 35.22 70.67 49.45 70.45 50.12 72.22 35.41"/><polygon class="cls-1" points="74.28 59.53 74.37 59.52 70.02 73.46 69.93 73.46 74.28 59.53"/><polygon class="cls-1" points="76.79 51.98 82.08 54.04 79.14 59.04 79.1 59.05 81.92 54.24 76.63 52.18 79.57 43.94 79.66 43.93 76.79 51.98"/><polygon class="cls-1" points="90.32 35.51 87.38 42.57 87.29 42.58 85.25 42.9 87.28 35.82 74.96 36.29 75.02 36.1 87.33 35.62 90.32 35.51"/><path class="cls-1" d="M42.45,54.58l-.07.08a27.88,27.88,0,0,1-1.92,2.06V53.19C44.48,51.44,43.73,53,42.45,54.58Z" transform="translate(-11.04 -6.8)"/><path class="cls-1" d="M47.82,64.07c0,1-.89,2.41-2.08,3.9l-.17.22a64,64,0,0,1-6,6.18L39.87,66v-.11A13.6,13.6,0,0,1,47.82,64.07Z" transform="translate(-11.04 -6.8)"/><polygon class="cls-1" points="45.9 53.75 45.74 53.77 43.55 54.04 45.47 44.45 45.61 43.75 45.9 53.75"/><path class="cls-1" d="M111.36,44.07l-2.6,4.66h0l-8.57,15.34a2.73,2.73,0,0,1-.46.73,2.43,2.43,0,0,0,.31-.53l8.67-15.52-8.79,2.52,4.86-8.47.12-.2Z" transform="translate(-11.04 -6.8)"/><path class="cls-1" d="M95.12,76.08A5.38,5.38,0,0,0,96.2,72.8a4.73,4.73,0,0,0-4.41-5,4.16,4.16,0,0,0-3.18,1.54,4.2,4.2,0,0,1,3.34-1.73c2.44,0,4.41,2.24,4.41,5A5.34,5.34,0,0,1,95.12,76.08Z" transform="translate(-11.04 -6.8)"/></g></g><path class="cls-1" d="M168.37,42.3a17.94,17.94,0,0,1,7.46,5,10,10,0,0,1,2.56,6.53,9,9,0,0,1-.4,2.6,8.65,8.65,0,0,1-3.13,4.4,22.12,22.12,0,0,1-6.73,2.9q-4.53,1.3-13.92,3.1-5.66,1.07-8.49,1.9a11.32,11.32,0,0,0-3.93,1.77,3.43,3.43,0,0,0-1.23,2.4h19.19a13.59,13.59,0,0,0,6.06-1.07,15.57,15.57,0,0,0,3.86-2.86,10.17,10.17,0,0,1,1.3-1.23,1.92,1.92,0,0,1,1.17-.37q1.2,0,2.2,1.63a7.86,7.86,0,0,1,1,4.16,14.23,14.23,0,0,1-.6,3.8,9.73,9.73,0,0,1-4.8,6.06q-3.46,1.8-10.46,1.8H136a4,4,0,0,1-3.43-1.8,8.15,8.15,0,0,1-1.3-4.86,17.24,17.24,0,0,1,.8-4.93,14.3,14.3,0,0,1,5.13-7.43A32,32,0,0,1,147.69,61a39.47,39.47,0,0,0,7-2.63,11.51,11.51,0,0,0,3.53-2.6,9.06,9.06,0,0,0,2-5.43,4.05,4.05,0,0,0-1.13-3A4.14,4.14,0,0,0,156,46.19a11.28,11.28,0,0,0-1.87.27,8,8,0,0,1,.07,1.2q0,4.53-2.73,6.79a10.38,10.38,0,0,1-6.86,2.27,7.06,7.06,0,0,1-4.86-1.6,5.5,5.5,0,0,1-1.8-4.33,8,8,0,0,1,.33-2.4q1.2-3.93,6.06-6a32.6,32.6,0,0,1,12.46-2A31.91,31.91,0,0,1,168.37,42.3Z" transform="translate(-11.04 -6.8)"/><path class="cls-1" d="M226.89,54.19a31.25,31.25,0,0,1-1.33,8.53q-3.4,12-10.29,17.22t-17.49,5.23q-18.12,0-18.12-13.86A31.41,31.41,0,0,1,181,62.72q3.4-12,10.29-17.22t17.42-5.23Q226.89,40.27,226.89,54.19Zm-21.82-6.46a15.56,15.56,0,0,0-2.86,4.9,87.3,87.3,0,0,0-3.3,10.09q-2.53,9.26-2.53,13.06a4.4,4.4,0,0,0,.57,2.6,2,2,0,0,0,1.7.73,4.11,4.11,0,0,0,2.9-1.33,15.53,15.53,0,0,0,2.86-4.93,83.12,83.12,0,0,0,3.23-10.13q2.6-9.53,2.6-13.06a4.26,4.26,0,0,0-.57-2.53,2,2,0,0,0-1.7-.73A4.12,4.12,0,0,0,205.08,47.73Z" transform="translate(-11.04 -6.8)"/><path class="cls-1" d="M253.61,40.13a3,3,0,0,1,2.2.8,3.36,3.36,0,0,1,.8,2.46,10.58,10.58,0,0,1-.4,2.6l-8.73,30.58a2.84,2.84,0,0,0-.13,1,2,2,0,0,0,.53,1.47,7.4,7.4,0,0,0,1.6,1.13,7.78,7.78,0,0,1,1.4,1,1.53,1.53,0,0,1,.4,1.13,2.37,2.37,0,0,1-.07.67,2.2,2.2,0,0,1-1.43,1.4,11.4,11.4,0,0,1-3.56.4H226.16a3.28,3.28,0,0,1-2.07-.53,1.77,1.77,0,0,1-.67-1.46,2,2,0,0,1,.07-.6,2.24,2.24,0,0,1,1-1.23,13.2,13.2,0,0,1,2.1-1,11,11,0,0,0,2.76-1.33,3.81,3.81,0,0,0,1.43-2.2l6.93-24.51a3.24,3.24,0,0,0,.13-1,2.53,2.53,0,0,0-.6-1.7,7.27,7.27,0,0,0-1.67-1.37,10.79,10.79,0,0,1-1.47-1.23,1.73,1.73,0,0,1-.47-1.23,2.16,2.16,0,0,1,.13-.67,1.61,1.61,0,0,1,.8-1.13,6.68,6.68,0,0,1,2.13-.67l14.06-2.47A15.79,15.79,0,0,1,253.61,40.13Z" transform="translate(-11.04 -6.8)"/><path class="cls-1" d="M295.17,42a16.84,16.84,0,0,1,7.26,4.13,8,8,0,0,1,2.4,5.56,6.59,6.59,0,0,1-.27,1.93,8.36,8.36,0,0,1-4,5.13A21.33,21.33,0,0,1,292,61.05a26.76,26.76,0,0,1,6.2,4.83,8.25,8.25,0,0,1,2.26,5.7,11.31,11.31,0,0,1-.33,2.4,13.33,13.33,0,0,1-6.86,8.36q-5.4,3-16.19,3a39.9,39.9,0,0,1-11.12-1.36,16,16,0,0,1-7.09-3.86,8.09,8.09,0,0,1-2.43-5.83,9.91,9.91,0,0,1,.4-2.73q1.86-6.86,13.92-9a29.47,29.47,0,0,1-5.7-5.2,8.73,8.73,0,0,1-2-5.6,9.4,9.4,0,0,1,.33-2.2,10.59,10.59,0,0,1,6.26-6.83q5-2.3,13.59-2.3A39.61,39.61,0,0,1,295.17,42ZM282.05,73.84a5.49,5.49,0,0,0-1.33-3.46,20.67,20.67,0,0,0-3.86-3.53,9.16,9.16,0,0,0-4.53,5.73,8.5,8.5,0,0,0-.27,2.07A4.23,4.23,0,0,0,273.32,78a4.61,4.61,0,0,0,3.2,1.13,5.1,5.1,0,0,0,5.4-4.13A3.74,3.74,0,0,0,282.05,73.84Zm-3.2-23.45a4.61,4.61,0,0,0,1.43,3.23,20.7,20.7,0,0,0,4.16,3.16,9.23,9.23,0,0,0,3.06-4.86,5.26,5.26,0,0,0,.27-1.67,3.73,3.73,0,0,0-1.27-3,4.51,4.51,0,0,0-3.06-1.1,5,5,0,0,0-2.86.73,4.06,4.06,0,0,0-1.53,2.26A3.76,3.76,0,0,0,278.85,50.39Z" transform="translate(-11.04 -6.8)"/></svg>