<svg id="Layer_1" data-name="Layer 1" xmlns="http://www.w3.org/2000/svg" viewBox="0 0 100 100"><defs><style>.cls-1{fill:#fff;}</style></defs><title>mute</title><g id="_18joX6" data-name="18joX6"><path class="cls-1" d="M56,51.1q0,16.15,0,32.3a3.48,3.48,0,0,1-1.68,3.25,3.3,3.3,0,0,1-3.94-.42l-10.1-8.73q-5.82-5-11.64-10.08A1.51,1.51,0,0,0,27.54,67H8.39A3.32,3.32,0,0,1,5,64.81a4.64,4.64,0,0,1-.2-1.42q0-12.4,0-24.8a3.37,3.37,0,0,1,3.7-3.68q9.67,0,19.35,0a1.68,1.68,0,0,0,1.2-.44Q39.64,25.25,50.3,16.06A3.25,3.25,0,0,1,54,15.42a3.3,3.3,0,0,1,2,3.13c0,.18,0,.37,0,.55Q56,35.1,56,51.1Z"/><path class="cls-1" d="M78.81,45.77l2.75-3.22L90,32.71a3.29,3.29,0,0,1,3.33-1.23,3.16,3.16,0,0,1,2.52,2.31,3.21,3.21,0,0,1-.7,3.17L86.52,47l-3.33,3.9,3.61,4.23c2.77,3.24,5.56,6.47,8.31,9.73a3.35,3.35,0,0,1-2.33,5.58A3.3,3.3,0,0,1,90,69.17l-8.14-9.54L78.73,56a2.43,2.43,0,0,1-.23.41Q73.06,62.8,67.6,69.18a3.34,3.34,0,0,1-5.95-1.78,3.24,3.24,0,0,1,.85-2.53l5.94-7,6-7-2.66-3.12L62.49,37a3.38,3.38,0,0,1,.2-4.69,3.25,3.25,0,0,1,4.7.17c1.75,1.94,3.42,4,5.12,5.95l6,7Z"/></g></svg>