<?xml version="1.0" encoding="utf-8"?>
<!-- Generator: Adobe Illustrator 21.0.2, SVG Export Plug-In . SVG Version: 6.00 Build 0)  -->
<svg version="1.1" id="Layer_1" xmlns="http://www.w3.org/2000/svg" xmlns:xlink="http://www.w3.org/1999/xlink" x="0px" y="0px"
	 viewBox="0 0 100 100" style="enable-background:new 0 0 100 100;" xml:space="preserve">
<style type="text/css">
	.st0{fill:#FFFFFF;}
</style>
<g id="SaWWrC_2_">
	<g>
		<path class="st0" d="M51.3,15.9c0-3.6,0-7,0-11.1c-7.4,6.8-14.4,13.3-21.5,20C36.9,31.5,44,38,51.5,45c0-4.7,0-8.9,0-13
			c10.9-1.8,22.7,8.3,24.5,20.8c1.9,12.9-8,25.6-21,27c-14.6,1.5-27.2-9.6-27-25c-2.6,0-5.2,0-7.8,0c-2.5,0-5.1,0-7.6,0
			C9.4,70,25.5,89.8,43.9,93.5c20.9,4.2,41.9-10.2,45.7-31.1C94.1,37.6,74.8,15.8,51.3,15.9z"/>
	</g>
</g>
</svg>
