<svg id="Layer_1" data-name="Layer 1" xmlns="http://www.w3.org/2000/svg" viewBox="0 0 100 100"><defs><style>.cls-1{fill:#fff;}</style></defs><title>unmute</title><g id="Y8ImoN"><path class="cls-1" d="M56.07,51.23q0,16.09,0,32.17a3.39,3.39,0,0,1-2.74,3.72,3.25,3.25,0,0,1-3-.89l-7-6q-7.27-6.29-14.55-12.57a2.22,2.22,0,0,0-1.33-.48c-6.25,0-12.51,0-18.76,0-2.57,0-3.86-1.28-3.86-3.86q0-12.24,0-24.48c0-2.52,1.35-3.85,3.9-3.85,6.32,0,12.63,0,18.95,0a2.64,2.64,0,0,0,1.57-.59q10.47-9,20.88-18a3.36,3.36,0,0,1,3.76-.88,3.51,3.51,0,0,1,2.16,3.6Q56.06,35.14,56.07,51.23Z"/><path class="cls-1" d="M90.5,51.3A49.56,49.56,0,0,0,80,21.39a3.69,3.69,0,0,1-1-3.2,3.19,3.19,0,0,1,2.47-2.55A3.28,3.28,0,0,1,85,16.91a55.78,55.78,0,0,1,8.29,14.5,55.51,55.51,0,0,1-8,54c-1.73,2.24-4.65,2.09-5.83-.31a3.21,3.21,0,0,1,.3-3.45c1-1.44,2-2.84,3-4.31A46.63,46.63,0,0,0,89.6,59.77C90.07,57,90.21,54.13,90.5,51.3Z"/><path class="cls-1" d="M85,51.32a44.64,44.64,0,0,1-8.36,25.35,3.33,3.33,0,0,1-4.83,1,3.28,3.28,0,0,1-.68-4.73,36.4,36.4,0,0,0,6.67-26.49,35.65,35.65,0,0,0-6.64-16.59,3.36,3.36,0,1,1,5.32-4.06A42.14,42.14,0,0,1,84,43.25C84.48,45.91,84.67,48.63,85,51.32Z"/><path class="cls-1" d="M71.9,51.39a30.93,30.93,0,0,1-4.6,15.74,3.34,3.34,0,1,1-5.74-3.4,23.54,23.54,0,0,0,3.51-13.29,22.93,22.93,0,0,0-3.16-10.85c-.22-.38-.45-.75-.64-1.15A3.32,3.32,0,0,1,67,35.1a28.11,28.11,0,0,1,4.26,10.71C71.57,47.65,71.69,49.53,71.9,51.39Z"/></g></svg>